<svg width="583" height="124" viewBox="0 0 583 124" fill="none" xmlns="http://www.w3.org/2000/svg">
<path fill-rule="evenodd" clip-rule="evenodd" d="M1.1814 22.346H582.41V119.218H1.1814V22.346Z" fill="#FFCC29"/>
<path d="M1.1814 22.346H582.41V119.218H1.1814V22.346Z" stroke="#383336" stroke-width="0.5" stroke-miterlimit="2.61313"/>
<path fill-rule="evenodd" clip-rule="evenodd" d="M7.2359 29.131H576.356V112.432H7.2359V29.131Z" fill="#211F1F"/>
<path d="M7.2359 29.131H576.356V112.432H7.2359V29.131Z" stroke="#383336" stroke-width="0.5" stroke-miterlimit="2.61313"/>
<path d="M187.889 50.7146C188.499 50.7146 188.803 51.0953 188.803 51.8564V56.7858C188.803 57.5469 188.499 57.9276 187.889 57.9276H170.631C169.598 57.9276 168.743 58.0399 168.067 58.2649C167.391 58.4897 166.854 58.8701 166.456 59.4065C166.059 59.9428 165.774 60.6693 165.601 61.586C165.429 62.5027 165.343 63.6355 165.343 64.9848V66.0225H187.69C188.273 66.0225 188.565 66.4032 188.565 67.1643V71.2635C188.565 72.0246 188.273 72.4053 187.69 72.4053H165.343V85.8971C165.343 86.6582 165.051 87.0386 164.468 87.0386H160.173C159.564 87.0386 159.259 86.6582 159.259 85.8971V64.4139C159.259 61.9231 159.464 59.8129 159.875 58.0832C160.286 56.3535 160.936 54.9439 161.824 53.854C162.712 52.7643 163.859 51.9686 165.263 51.4672C166.668 50.9654 168.378 50.7146 170.393 50.7146H187.889Z" fill="white"/>
<path d="M215.843 50.7146C217.857 50.7146 219.574 50.9654 220.992 51.4672C222.41 51.9686 223.564 52.7643 224.451 53.854C225.34 54.9439 225.982 56.3535 226.38 58.0832C226.777 59.8129 226.977 61.9231 226.977 64.4139V73.3393C226.977 75.8301 226.777 77.949 226.38 79.696C225.982 81.443 225.34 82.8614 224.451 83.9511C223.564 85.0407 222.41 85.8279 220.992 86.3121C219.574 86.7965 217.857 87.0386 215.843 87.0386H203.556C201.541 87.0386 199.831 86.7965 198.426 86.3121C197.021 85.8279 195.874 85.0407 194.987 83.9511C194.099 82.8614 193.449 81.443 193.038 79.696C192.627 77.949 192.422 75.8301 192.422 73.3393V64.4139C192.422 61.9231 192.627 59.8129 193.038 58.0832C193.449 56.3535 194.099 54.9439 194.987 53.854C195.874 52.7643 197.021 51.9686 198.426 51.4672C199.831 50.9654 201.541 50.7146 203.556 50.7146H215.843ZM198.506 72.7684C198.506 74.1177 198.592 75.2507 198.764 76.1674C198.936 77.0842 199.221 77.8107 199.619 78.3467C200.017 78.883 200.554 79.2634 201.23 79.4885C201.906 79.7133 202.76 79.8258 203.794 79.8258H215.604C216.638 79.8258 217.493 79.7133 218.169 79.4885C218.845 79.2634 219.382 78.883 219.779 78.3467C220.177 77.8107 220.462 77.0842 220.634 76.1674C220.807 75.2507 220.893 74.1177 220.893 72.7684V64.9848C220.893 63.6355 220.807 62.5027 220.634 61.586C220.462 60.6693 220.177 59.9428 219.779 59.4065C219.382 58.8701 218.845 58.4897 218.169 58.2649C217.493 58.0399 216.638 57.9276 215.604 57.9276H203.794C202.76 57.9276 201.906 58.0399 201.23 58.2649C200.554 58.4897 200.017 58.8701 199.619 59.4065C199.221 59.9428 198.936 60.6693 198.764 61.586C198.592 62.5027 198.506 63.6355 198.506 64.9848V72.7684Z" fill="white"/>
<path d="M255.01 50.7146C257.025 50.7146 258.741 50.9654 260.159 51.4672C261.577 51.9686 262.731 52.7643 263.619 53.854C264.507 54.9439 265.149 56.3535 265.547 58.0832C265.945 59.8129 266.144 61.9231 266.144 64.4139V73.3393C266.144 75.8301 265.945 77.949 265.547 79.696C265.149 81.443 264.507 82.8614 263.619 83.9511C262.731 85.0407 261.577 85.8279 260.159 86.3121C258.741 86.7965 257.025 87.0386 255.01 87.0386H242.723C240.708 87.0386 238.998 86.7965 237.593 86.3121C236.188 85.8279 235.042 85.0407 234.154 83.9511C233.266 82.8614 232.616 81.443 232.205 79.696C231.794 77.949 231.589 75.8301 231.589 73.3393V64.4139C231.589 61.9231 231.794 59.8129 232.205 58.0832C232.616 56.3535 233.266 54.9439 234.154 53.854C235.042 52.7643 236.188 51.9686 237.593 51.4672C238.998 50.9654 240.708 50.7146 242.723 50.7146H255.01ZM237.673 72.7684C237.673 74.1177 237.759 75.2507 237.931 76.1674C238.104 77.0842 238.388 77.8107 238.786 78.3467C239.184 78.883 239.721 79.2634 240.397 79.4885C241.073 79.7133 241.928 79.8258 242.961 79.8258H254.771C255.805 79.8258 256.66 79.7133 257.336 79.4885C258.012 79.2634 258.549 78.883 258.946 78.3467C259.344 77.8107 259.629 77.0842 259.801 76.1674C259.974 75.2507 260.06 74.1177 260.06 72.7684V64.9848C260.06 63.6355 259.974 62.5027 259.801 61.586C259.629 60.6693 259.344 59.9428 258.946 59.4065C258.549 58.8701 258.012 58.4897 257.336 58.2649C256.66 58.0399 255.805 57.9276 254.771 57.9276H242.961C241.928 57.9276 241.073 58.0399 240.397 58.2649C239.721 58.4897 239.184 58.8701 238.786 59.4065C238.388 59.9428 238.104 60.6693 237.931 61.586C237.759 62.5027 237.673 63.6355 237.673 64.9848V72.7684Z" fill="white"/>
<path d="M290.876 50.7146C293.024 50.7146 294.866 51 296.404 51.5709C297.941 52.1415 299.2 53.024 300.181 54.2174C301.162 55.4107 301.885 56.9329 302.348 58.7837C302.812 60.6344 303.044 62.8228 303.044 65.3482V72.4053C303.044 74.9307 302.812 77.1187 302.348 78.9695C301.885 80.8202 301.162 82.3424 300.181 83.5358C299.2 84.7295 297.941 85.6116 296.404 86.1822C294.866 86.7531 293.024 87.0386 290.876 87.0386H272.267C271.472 87.0386 271.074 86.5196 271.074 85.4818V52.2714C271.074 51.2336 271.472 50.7146 272.267 50.7146H290.876ZM277.158 79.1512C277.158 79.6008 277.331 79.8258 277.675 79.8258H290.717C291.884 79.8258 292.865 79.6872 293.66 79.4106C294.455 79.1339 295.098 78.684 295.589 78.0613C296.079 77.4388 296.43 76.6085 296.642 75.5707C296.855 74.5327 296.961 73.2529 296.961 71.7306V66.0225C296.961 64.5006 296.855 63.2205 296.642 62.1827C296.43 61.1449 296.079 60.3147 295.589 59.6919C295.098 59.0691 294.455 58.6196 293.66 58.3426C292.865 58.066 291.884 57.9276 290.717 57.9276H277.675C277.331 57.9276 277.158 58.1697 277.158 58.6541V79.1512Z" fill="white"/>
<path d="M313.224 50.7146C313.807 50.7146 314.099 51.0953 314.099 51.8564V85.8971C314.099 86.6582 313.807 87.0386 313.224 87.0386H308.929C308.319 87.0386 308.015 86.6582 308.015 85.8971V51.8564C308.015 51.0953 308.319 50.7146 308.929 50.7146H313.224Z" fill="white"/>
<path d="M347.699 50.7146C348.308 50.7146 348.613 51.0953 348.613 51.8564V56.7858C348.613 57.5469 348.308 57.9276 347.699 57.9276H330.322C329.288 57.9276 328.433 58.0399 327.757 58.2649C327.081 58.4897 326.538 58.8701 326.127 59.4065C325.716 59.9428 325.431 60.6693 325.272 61.586C325.113 62.5027 325.034 63.6355 325.034 64.9848V65.5038H347.5C348.083 65.5038 348.375 65.8842 348.375 66.6453V70.7448C348.375 71.5059 348.083 71.8863 347.5 71.8863H325.034V72.7684C325.034 74.1177 325.113 75.2507 325.272 76.1674C325.431 77.0842 325.716 77.8107 326.127 78.3467C326.538 78.883 327.081 79.2634 327.757 79.4885C328.433 79.7133 329.288 79.8258 330.322 79.8258H347.699C348.308 79.8258 348.613 80.2062 348.613 80.9673V85.8971C348.613 86.6582 348.308 87.0386 347.699 87.0386H330.203C328.188 87.0386 326.478 86.7965 325.073 86.3121C323.668 85.8279 322.522 85.0407 321.634 83.9511C320.746 82.8614 320.096 81.443 319.685 79.696C319.274 77.949 319.069 75.8301 319.069 73.3393V64.4139C319.069 61.9231 319.274 59.8129 319.685 58.0832C320.096 56.3535 320.746 54.9439 321.634 53.854C322.522 52.7643 323.668 51.9686 325.073 51.4672C326.478 50.9654 328.188 50.7146 330.203 50.7146H347.699Z" fill="white"/>
<path d="M389.053 50.7146C392.102 50.7146 394.289 51.614 395.614 53.4129C396.94 55.212 397.602 57.8757 397.602 61.4043V65.2441C397.602 68.773 396.94 71.4367 395.614 73.2356C394.289 75.0344 392.102 75.9339 389.053 75.9339H372.591V85.8971C372.591 86.6582 372.299 87.0386 371.716 87.0386H367.422C366.812 87.0386 366.507 86.6582 366.507 85.8971V52.2714C366.507 51.2336 366.905 50.7146 367.7 50.7146H389.053ZM372.591 69.0842H387.82C389.172 69.0842 390.127 68.7035 390.684 67.9427C391.24 67.1816 391.518 66.0225 391.518 64.4657V62.494C391.518 60.9372 391.24 59.7784 390.684 59.0173C390.127 58.2562 389.172 57.8757 387.82 57.8757H373.108C372.764 57.8757 372.591 58.0832 372.591 58.4982V69.0842Z" fill="white"/>
<path d="M419.194 50.7146C420.201 50.7146 421.05 50.9827 421.739 51.5191C422.428 52.0551 423.104 53.1016 423.767 54.6584L436.928 85.8452C437.061 86.191 437.094 86.4765 437.028 86.7013C436.962 86.926 436.769 87.0386 436.451 87.0386H431.401C430.95 87.0386 430.646 86.8138 430.487 86.3639L427.664 79.6699H408.975L406.231 86.3639C406.045 86.8138 405.74 87.0386 405.316 87.0386H400.147C399.802 87.0386 399.597 86.926 399.531 86.7013C399.464 86.4765 399.498 86.191 399.63 85.8452L412.673 54.6584C413.335 53.1016 413.985 52.0551 414.621 51.5191C415.257 50.9827 415.999 50.7146 416.848 50.7146H419.194ZM411.48 73.6506H425.159L418.836 58.4464C418.73 58.2043 418.584 58.0832 418.399 58.0832H418.16C417.974 58.0832 417.829 58.2043 417.723 58.4464L411.48 73.6506Z" fill="white"/>
<path d="M447.386 50.7146C448.023 50.7146 448.553 50.7492 448.977 50.8183C449.401 50.8878 449.772 51.0346 450.09 51.2594C450.408 51.4845 450.713 51.7957 451.004 52.1937C451.296 52.5914 451.628 53.1189 451.999 53.7763L466.791 79.0993C466.897 79.3414 467.069 79.4624 467.308 79.4624H467.666C467.878 79.4624 467.984 79.2895 467.984 78.9434V51.8564C467.984 51.0953 468.275 50.7146 468.858 50.7146H473.034C473.617 50.7146 473.909 51.0953 473.909 51.8564V81.642C473.909 83.7521 473.617 85.1791 473.034 85.9229C472.451 86.6667 471.549 87.0386 470.33 87.0386H466.91C466.301 87.0386 465.79 87.004 465.379 86.9348C464.968 86.8657 464.604 86.7273 464.286 86.5196C463.968 86.3121 463.656 86.0093 463.351 85.6116C463.046 85.2136 462.695 84.6688 462.298 83.9769L447.466 58.6541C447.307 58.4118 447.134 58.2907 446.949 58.2907H446.591C446.379 58.2907 446.273 58.4637 446.273 58.8098V85.8971C446.273 86.6582 445.981 87.0386 445.398 87.0386H441.223C440.613 87.0386 440.308 86.6582 440.308 85.8971V56.1115C440.308 54.0011 440.6 52.5741 441.183 51.8303C441.766 51.0865 442.668 50.7146 443.887 50.7146H447.386Z" fill="white"/>
<path d="M499 50.7146C501.147 50.7146 502.989 51 504.527 51.5709C506.064 52.1415 507.323 53.024 508.304 54.2174C509.285 55.4107 510.008 56.9329 510.471 58.7837C510.935 60.6344 511.167 62.8228 511.167 65.3482V72.4053C511.167 74.9307 510.935 77.1187 510.471 78.9695C510.008 80.8202 509.285 82.3424 508.304 83.5358C507.323 84.7295 506.064 85.6116 504.527 86.1822C502.989 86.7531 501.147 87.0386 499 87.0386H480.39C479.595 87.0386 479.197 86.5196 479.197 85.4818V52.2714C479.197 51.2336 479.595 50.7146 480.39 50.7146H499ZM485.281 79.1512C485.281 79.6008 485.454 79.8258 485.798 79.8258H498.841C500.007 79.8258 500.988 79.6872 501.783 79.4106C502.578 79.1339 503.221 78.684 503.712 78.0613C504.202 77.4388 504.553 76.6085 504.765 75.5707C504.978 74.5327 505.084 73.2529 505.084 71.7306V66.0225C505.084 64.5006 504.978 63.2205 504.765 62.1827C504.553 61.1449 504.202 60.3147 503.712 59.6919C503.221 59.0691 502.578 58.6196 501.783 58.3426C500.988 58.066 500.007 57.9276 498.841 57.9276H485.798C485.454 57.9276 485.281 58.1697 485.281 58.6541V79.1512Z" fill="white"/>
<path d="M533.793 50.7146C534.8 50.7146 535.648 50.9827 536.338 51.5191C537.027 52.0551 537.703 53.1016 538.365 54.6584L551.527 85.8452C551.66 86.191 551.693 86.4765 551.627 86.7013C551.56 86.926 551.368 87.0386 551.05 87.0386H546C545.549 87.0386 545.245 86.8138 545.086 86.3639L542.262 79.6699H523.573L520.83 86.3639C520.644 86.8138 520.339 87.0386 519.915 87.0386H514.746C514.401 87.0386 514.196 86.926 514.13 86.7013C514.063 86.4765 514.096 86.191 514.229 85.8452L527.272 54.6584C527.934 53.1016 528.584 52.0551 529.22 51.5191C529.856 50.9827 530.598 50.7146 531.447 50.7146H533.793ZM526.078 73.6506H539.757L533.435 58.4464C533.329 58.2043 533.183 58.0832 532.998 58.0832H532.759C532.573 58.0832 532.427 58.2043 532.321 58.4464L526.078 73.6506Z" fill="white"/>
<path d="M326.595 97.802H326.896C327.777 97.802 328.362 97.7093 328.652 97.5237C328.94 97.338 329.086 97.01 329.086 96.5375C329.086 96.0281 328.931 95.6698 328.62 95.4606C328.31 95.2511 327.735 95.1477 326.896 95.1477H326.595V97.802ZM326.49 98.9719V103.113H324.931V93.857H327.252C327.933 93.857 328.463 93.8979 328.838 93.9778C329.212 94.0577 329.533 94.1893 329.8 94.3749C330.117 94.5994 330.361 94.8886 330.535 95.2426C330.707 95.5964 330.793 95.9827 330.793 96.4057C330.793 97.1461 330.595 97.7266 330.199 98.1473C329.802 98.566 329.215 98.8185 328.441 98.9027L331.968 103.113H330.086L326.679 98.9719H326.49Z" fill="white"/>
<path d="M337.279 103.113V93.857H342.995V95.1346H338.943V97.4545H342.995V98.7754H338.943V101.767H342.995V103.113H337.279Z" fill="white"/>
<path d="M351.389 99.4767H354.242L353.194 97.366C353.135 97.2303 353.07 97.0746 353.005 96.9C352.941 96.7251 352.875 96.531 352.81 96.315C352.752 96.5179 352.695 96.7078 352.631 96.8827C352.569 97.0576 352.504 97.2172 352.44 97.366L351.389 99.4767ZM355.993 103.113L354.83 100.728H350.775L349.586 103.113H347.836L352.795 93.49L357.748 103.113H355.993Z" fill="white"/>
<path d="M363.039 103.113V93.857H364.703V101.767H368.427V103.113H363.039Z" fill="white"/>
<path d="M381.734 95.1346V103.113H380.07V95.1346H377.348V93.857H384.442V95.1346H381.734Z" fill="white"/>
<path d="M392.2 99.4767H395.054L394.005 97.366C393.946 97.2303 393.881 97.0746 393.817 96.9C393.752 96.7251 393.686 96.531 393.621 96.315C393.563 96.5179 393.507 96.7078 393.442 96.8827C393.38 97.0576 393.315 97.2172 393.251 97.366L392.2 99.4767ZM396.804 103.113L395.641 100.728H391.586L390.397 103.113H388.647L393.607 93.49L398.559 103.113H396.804Z" fill="white"/>
<path d="M403.263 101.259L404.591 100.705C404.718 101.117 404.949 101.432 405.283 101.648C405.62 101.866 406.05 101.974 406.571 101.974C407.065 101.974 407.459 101.849 407.75 101.6C408.042 101.352 408.187 101.02 408.187 100.603C408.187 100.059 407.688 99.574 406.69 99.1488C406.549 99.0861 406.444 99.0388 406.367 99.0107C405.241 98.5121 404.488 98.0631 404.113 97.6597C403.738 97.2583 403.55 96.764 403.55 96.1834C403.55 95.428 403.834 94.8174 404.4 94.3491C404.966 93.8806 405.709 93.6476 406.628 93.6476C407.382 93.6476 408.015 93.7794 408.524 94.0424C409.033 94.3058 409.383 94.6856 409.579 95.1777L408.278 95.7843C408.073 95.4929 407.848 95.2814 407.602 95.1477C407.359 95.0116 407.077 94.9447 406.759 94.9447C406.313 94.9447 405.957 95.0504 405.694 95.2596C405.429 95.4714 405.298 95.754 405.298 96.108C405.298 96.6648 405.876 97.1826 407.034 97.6617C407.122 97.7005 407.191 97.7309 407.241 97.7501C408.254 98.1734 408.949 98.5855 409.328 98.9869C409.706 99.3906 409.895 99.8934 409.895 100.496C409.895 101.372 409.589 102.069 408.978 102.585C408.366 103.1 407.542 103.359 406.501 103.359C405.63 103.359 404.916 103.178 404.357 102.815C403.801 102.453 403.435 101.935 403.263 101.259Z" fill="white"/>
<path d="M419.348 95.1346V103.113H417.684V95.1346H414.962V93.857H422.056V95.1346H419.348Z" fill="white"/>
<path d="M427.653 103.113V93.857H433.37V95.1346H429.318V97.4545H433.37V98.7754H429.318V101.767H433.37V103.113H427.653Z" fill="white"/>
<path d="M452.693 98.5036C452.693 98.0373 452.597 97.5928 452.409 97.1696C452.22 96.7489 451.95 96.3734 451.594 96.0454C451.25 95.7194 450.849 95.4714 450.396 95.2965C449.939 95.1216 449.462 95.0331 448.958 95.0331C448.454 95.0331 447.974 95.1196 447.52 95.2922C447.067 95.4649 446.661 95.7151 446.307 96.0454C445.954 96.3691 445.682 96.7424 445.496 97.1634C445.309 97.5863 445.216 98.033 445.216 98.5036C445.216 98.9719 445.309 99.4141 445.496 99.8328C445.682 100.249 445.954 100.623 446.307 100.951C446.661 101.281 447.064 101.531 447.518 101.704C447.969 101.876 448.449 101.963 448.958 101.963C449.457 101.963 449.932 101.876 450.381 101.704C450.83 101.531 451.236 101.281 451.594 100.951C451.95 100.623 452.22 100.249 452.409 99.8285C452.597 99.4098 452.693 98.9673 452.693 98.5036ZM454.429 98.5036C454.429 99.1618 454.292 99.7831 454.02 100.368C453.746 100.955 453.349 101.477 452.826 101.937C452.299 102.397 451.704 102.748 451.043 102.992C450.381 103.236 449.686 103.359 448.958 103.359C448.22 103.359 447.518 103.236 446.849 102.99C446.178 102.742 445.589 102.392 445.075 101.937C444.552 101.477 444.156 100.957 443.886 100.375C443.616 99.7939 443.48 99.1703 443.48 98.5036C443.48 97.8409 443.616 97.2172 443.886 96.6324C444.156 96.0454 444.552 95.521 445.075 95.0569C445.598 94.5972 446.19 94.2477 446.852 94.0081C447.513 93.7686 448.215 93.6476 448.958 93.6476C449.696 93.6476 450.393 93.7686 451.052 94.0081C451.713 94.2477 452.303 94.5972 452.826 95.0569C453.349 95.5252 453.746 96.0539 454.02 96.6409C454.292 97.2303 454.429 97.8496 454.429 98.5036Z" fill="white"/>
<path d="M460.661 103.113V93.857H466.378V95.1346H462.325V97.4417H466.378V98.7624H462.325V103.113H460.661Z" fill="white"/>
<path d="M478.991 99.4767H481.844L480.796 97.366C480.736 97.2303 480.672 97.0746 480.607 96.9C480.543 96.7251 480.476 96.531 480.411 96.315C480.354 96.5179 480.297 96.7078 480.232 96.8827C480.17 97.0576 480.106 97.2172 480.041 97.366L478.991 99.4767ZM483.594 103.113L482.431 100.728H478.377L477.188 103.113H475.437L480.397 93.49L485.35 103.113H483.594Z" fill="white"/>
<path d="M492.305 97.802H492.606C493.487 97.802 494.072 97.7093 494.362 97.5237C494.65 97.338 494.796 97.01 494.796 96.5375C494.796 96.0281 494.641 95.6698 494.33 95.4606C494.02 95.2511 493.445 95.1477 492.606 95.1477H492.305V97.802ZM492.2 98.9719V103.113H490.641V93.857H492.962C493.643 93.857 494.173 93.8979 494.548 93.9778C494.922 94.0577 495.243 94.1893 495.51 94.3749C495.827 94.5994 496.071 94.8886 496.245 95.2426C496.418 95.5964 496.503 95.9827 496.503 96.4057C496.503 97.1461 496.305 97.7266 495.909 98.1473C495.512 98.566 494.925 98.8185 494.151 98.9027L497.678 103.113H495.796L492.389 98.9719H492.2Z" fill="white"/>
<path d="M505.15 99.4767H508.003L506.955 97.366C506.896 97.2303 506.831 97.0746 506.766 96.9C506.702 96.7251 506.635 96.531 506.571 96.315C506.513 96.5179 506.456 96.7078 506.391 96.8827C506.329 97.0576 506.265 97.2172 506.2 97.366L505.15 99.4767ZM509.754 103.113L508.591 100.728H504.536L503.347 103.113H501.597L506.556 93.49L511.509 103.113H509.754Z" fill="white"/>
<path d="M518.431 97.7654H519.066C519.859 97.7654 520.42 97.6682 520.75 97.4718C521.077 97.2753 521.242 96.9454 521.242 96.4814C521.242 95.9762 521.091 95.6202 520.788 95.4152C520.485 95.21 519.912 95.1088 519.066 95.1088H518.431V97.7654ZM518.431 101.855H519.004C519.587 101.855 520.024 101.833 520.313 101.793C520.602 101.749 520.829 101.676 520.998 101.57C521.204 101.449 521.361 101.283 521.473 101.078C521.586 100.871 521.641 100.644 521.641 100.394C521.641 100.101 521.574 99.8415 521.438 99.6236C521.301 99.4033 521.108 99.2329 520.857 99.1122C520.7 99.0388 520.518 98.9869 520.315 98.9523C520.112 98.92 519.843 98.9027 519.508 98.9027H519.004H518.431V101.855ZM516.8 103.113V93.857H519.381C520.12 93.857 520.664 93.8936 521.015 93.9648C521.366 94.0362 521.667 94.1547 521.913 94.3188C522.23 94.5303 522.476 94.8066 522.651 95.1477C522.825 95.4887 522.913 95.8662 522.913 96.2784C522.913 96.7728 522.787 97.1849 522.536 97.5151C522.283 97.8451 521.918 98.0761 521.438 98.2079C522.035 98.2918 522.505 98.5379 522.849 98.9438C523.19 99.3517 523.362 99.8631 523.362 100.482C523.362 100.858 523.29 101.214 523.145 101.551C523.002 101.89 522.796 102.177 522.529 102.412C522.25 102.669 521.903 102.85 521.488 102.956C521.072 103.061 520.375 103.113 519.396 103.113H516.8Z" fill="white"/>
<path d="M529.408 103.113V93.857H531.073V103.113H529.408Z" fill="white"/>
<path d="M539.951 99.4767H542.805L541.756 97.366C541.697 97.2303 541.632 97.0746 541.568 96.9C541.503 96.7251 541.436 96.531 541.372 96.315C541.314 96.5179 541.257 96.7078 541.193 96.8827C541.131 97.0576 541.066 97.2172 541.002 97.366L539.951 99.4767ZM544.555 103.113L543.392 100.728H539.337L538.148 103.113H536.398L541.357 93.49L546.31 103.113H544.555Z" fill="white"/>
<path fill-rule="evenodd" clip-rule="evenodd" d="M62.406 116.472C62.3601 116.636 62.3267 116.803 62.2989 116.971C62.2164 117.471 62.177 117.965 62.0452 118.456C61.9831 118.688 61.8995 118.915 61.7952 119.131C60.7628 121.279 57.9367 122.158 55.7724 122.543C54.2647 122.811 52.7087 122.913 51.1789 122.919C49.507 122.927 47.8277 122.82 46.1678 122.624C44.4083 122.416 42.6511 122.107 40.9296 121.686C39.3833 121.308 37.8294 120.833 36.363 120.211C34.6013 119.464 31.6816 117.953 31.5872 115.735C31.5725 115.389 31.6039 115.042 31.6782 114.704C31.9353 113.531 32.6457 112.631 33.3847 111.723C33.7129 111.32 34.1801 110.78 34.3674 110.295C35.6498 106.972 36.8384 103.543 37.5927 100.058C38.2424 97.0574 38.5585 94.0027 38.2648 90.9374C37.9643 87.8014 37.0459 84.8789 35.609 82.0811L35.59 82.0442L35.577 82.0051C33.845 76.8835 34.6957 67.8098 39.4664 64.4643C39.6566 64.2231 39.8525 63.9867 40.0404 63.744C40.079 63.6941 40.1742 63.5731 40.2207 63.4909C40.1351 63.3676 39.9089 63.1431 39.8377 63.0694C39.4363 62.6527 39.0508 62.2363 38.6789 61.7918C29.4286 50.7299 31.0191 36.6817 40.3483 26.2887C39.6059 23.6395 39.9562 20.9123 41.5221 18.6139C43.3499 15.9306 46.4617 14.3875 49.6652 14.2608C49.1096 11.8995 49.3556 9.5235 51.0215 7.5976C53.2975 4.9668 57.5699 4.03359 60.9198 4.50189C61.7399 4.20029 62.5639 3.89729 63.3948 3.62689C64.0343 3.41879 64.6766 3.23541 65.3368 3.10471C66.6254 2.84901 67.9886 2.7887 69.3033 2.7269C71.7448 0.887698 75.0599 0.490914 77.9974 1.09161C81.3457 1.77611 84.2864 3.92511 85.2465 7.30881C86.0025 9.97191 85.2935 12.6745 83.6577 14.8427C85.9982 14.1196 88.5052 14.0054 90.8256 14.9453C93.0996 15.8666 94.8642 17.6853 95.7395 19.9743C96.5185 22.0115 96.5253 24.2517 95.7443 26.2791C99.7624 30.2723 102.519 35.2729 103.479 40.8837C104.365 46.0646 103.636 51.4519 101.355 56.1911C100.093 58.8123 98.3791 61.1931 96.2786 63.2063C96.1505 63.3636 96.0187 63.5167 95.8866 63.6706C95.8778 63.6808 95.8679 63.6924 95.8571 63.7046C95.8889 63.735 95.9195 63.7633 95.943 63.786C96.1417 63.9796 96.3334 64.1757 96.5187 64.3824C102.286 70.8162 102.494 78.9046 99.4821 86.6709C98.7082 88.6671 97.8995 90.2298 97.9346 92.4372C97.9429 92.9621 98.0015 93.5064 98.0633 94.0277C98.1543 94.7987 98.2697 95.5683 98.3956 96.3342C98.7111 98.2556 99.0969 100.174 99.5351 102.071C99.9722 103.964 100.466 105.876 101.082 107.719C101.325 108.448 101.592 109.181 101.91 109.882C102.109 110.322 102.364 110.839 102.67 111.22C103.342 111.921 104.089 112.613 104.549 113.479C105.01 114.346 105.102 115.239 104.932 116.198C104.695 118.559 101.947 120.035 99.998 120.821C98.5305 121.413 96.972 121.842 95.4254 122.169C93.7127 122.531 91.9666 122.775 90.2224 122.918C88.4933 123.059 86.7466 123.104 85.0132 123.028C83.4442 122.959 81.8483 122.792 80.3134 122.455C78.2588 122.003 75.3128 121.009 74.6378 118.747C74.5891 118.584 74.5502 118.418 74.5182 118.251C74.4091 117.68 74.3836 117.015 74.1982 116.444C70.2682 116.783 66.3346 116.868 62.406 116.472Z" fill="#211F1F"/>
<path fill-rule="evenodd" clip-rule="evenodd" d="M74.5579 115.853C70.3697 116.234 66.2164 116.334 62.031 115.873C61.6795 116.657 61.724 117.506 61.508 118.313C59.4986 125.822 32.3968 121.673 32.1428 115.711C32.1303 115.413 32.1575 115.114 32.2213 114.823C32.4566 113.75 33.146 112.897 33.8161 112.074C34.1846 111.621 34.6736 111.046 34.8865 110.495C39.173 99.3906 40.7661 90.905 36.1037 81.8268C34.4233 76.8577 35.2774 68.0005 39.8522 64.8739C41.3098 63.0056 41.0889 63.8064 39.1055 61.4349C30.0457 50.6009 31.5478 36.7435 40.9699 26.4305C40.9591 26.3959 40.9486 26.3613 40.9384 26.3267C39.006 19.9102 44.215 14.6344 50.3894 14.8127C48.006 6.9219 55.9226 4.29897 60.9791 5.07307C65.0414 3.57947 65.5414 3.46269 69.5043 3.27419C71.8304 1.44139 75.0591 1.0584 77.886 1.6364C84.539 2.9964 87.0998 9.6338 83.0542 14.7137L82.3974 15.8989C91.8291 11.8655 97.8765 20.0318 95.0878 26.414C106.403 37.381 105.384 53.7349 95.869 62.8284C94.9098 64.0139 94.9821 63.5017 96.1046 64.7537C101.719 71.0163 101.905 78.8827 98.9636 86.47C98.143 88.5866 97.3416 90.1181 97.3785 92.446C97.4304 95.7228 100.023 108.857 102.252 111.587C103.537 112.932 104.775 113.946 104.381 116.122C103.751 122.907 77.1252 125.137 75.1707 118.588C74.9023 117.689 74.9916 116.722 74.5579 115.853Z" fill="#FFCC29"/>
<path fill-rule="evenodd" clip-rule="evenodd" d="M39.6733 56.3042C41.1683 57.4024 41.2205 57.7717 43.5066 59.1749C48.4976 62.238 53.2368 62.8004 59.0742 63.5632C60.94 63.807 62.1302 66.8468 69.2823 66.4052C74.5783 66.0781 75.2427 64.4805 76.7224 63.9002C77.5167 63.5887 78.7532 63.5249 79.7901 63.3534C80.0993 63.0651 81.3571 60.0862 84.5166 58.6054C87.9371 57.0021 89.5815 58.1263 91.2231 60.2302C92.1403 59.7931 93.323 59.1292 94.2343 58.3693C94.922 57.7955 96.2633 56.6475 97.08 56.2334C103.982 45.2644 100.554 34.9627 92.021 28.1032C88.4117 29.417 88.5548 29.4547 85.7122 26.0328C83.4235 23.2775 82.8064 25.9361 80.7468 21.4542L78.546 20.813C77.3174 21.1671 77.9303 22.1493 74.3609 23.5417C70.5131 24.5874 65.4547 24.5959 61.5917 23.7327C58.5838 23.0603 58.8086 22.8605 57.0701 21.0058L55.7237 21.5087C55.3415 27.2896 53.6904 24.277 51.2974 26.9401C48.042 28.9626 49.1663 29.0142 44.4293 28.013C41.3727 31.005 38.3323 34.7136 37.0433 40.4123C36.3806 43.342 36.3273 46.3084 36.9189 49.3043C37.2503 50.981 38.5573 55.4416 39.6733 56.3042Z" fill="#FCFCFC"/>
<path fill-rule="evenodd" clip-rule="evenodd" d="M57.2371 17.0807L57.5268 19.7132L55.3605 20.3646C50.858 13.74 39.7944 18.9541 43.6061 27.2182C36.3009 33.5843 32.4702 44.4021 37.7171 55.2837C39.7054 59.4076 41.9875 61.1435 42.8841 62.592C43.3388 63.1553 42.4371 64.7435 41.227 66.3068C35.3029 73.9581 37.1071 79.5543 39.8219 85.8174C42.2942 93.357 39.7969 104.424 37.0326 111.586C35.8372 114.683 31.482 115.987 37.7599 118.052C43.0488 119.793 49.4877 120.072 55.0609 119.905C57.0797 119.845 58.8738 119.494 59.2979 117.91C60.25 114.352 60.7977 113.151 63.441 110.392C64.989 108.776 71.7354 108.789 73.0569 110.282C76.0424 113.656 76.1274 113.929 77.3778 118.119C77.8401 119.668 79.9843 119.825 81.9538 119.945C85.5283 120.162 103.66 119.423 102.046 115.163C101.675 114.185 101.137 114.011 100.604 113.447C98.4673 111.188 96.0139 99.4016 95.7094 96.3425C95.1374 90.5989 95.4518 90.3248 97.1988 85.8197C101.13 74.6543 98.3204 70.2345 95.2451 66.6663C94.1291 65.3717 93.4026 64.1097 93.5582 63.041C93.7351 62.3261 96.3047 59.5893 97.7427 57.2416C102.84 48.9211 102.066 38.6866 96.1979 31.0047L92.9295 27.2182C97.0117 19.8493 86.0289 13.168 81.2369 20.3731L78.0334 19.5788C78.3311 16.999 78.0921 15.6548 79.643 14.7503C86.1609 10.9496 81.2366 1.87339 72.9563 4.33349C70.0349 5.20119 71.6099 5.92689 68.5652 5.87359C64.553 5.80359 62.6323 7.28499 61.461 7.61459C55.2503 4.56199 45.8177 14.1675 57.2371 17.0807ZM43.038 61.0225C42.6086 60.5054 42.231 60.1605 41.7888 59.6267C41.0079 58.6845 40.1082 57.4063 39.6733 56.3042C38.5573 55.4416 37.2503 50.981 36.9189 49.3043C36.3273 46.3084 36.3806 43.342 37.0433 40.4123C38.3323 34.7136 41.3727 31.005 44.4293 28.013C48.8873 30.8361 49.3542 28.8957 51.6486 26.5835C53.6235 24.5928 55.6945 27.4645 55.7211 21.8307L57.0701 21.3703C58.329 23.144 60.5445 23.9326 62.9072 24.2566C66.3048 24.7223 71.0716 24.4354 74.3609 23.5417C78.0726 22.3429 77.473 21.8423 78.25 21.1424L80.723 21.7326C80.2652 26.7414 83.7892 25.2337 85.1515 26.8738C88.0222 30.2116 89.1042 29.8403 92.2373 28.358C98.7164 34.3933 103.488 45.8758 97.08 56.2334C95.0025 60.5593 92.7061 61.3984 92.1537 62.7559C91.5283 60.0811 90.1793 58.3678 88.2566 57.9446C84.033 57.0146 79.7719 61.9528 79.101 65.8598C78.9541 66.7145 78.9799 67.7046 78.6188 68.2625C78.1403 66.3995 78.3818 67.8007 77.8166 65.8227C75.0718 65.8028 71.4786 66.6853 70.4491 69.4451C65.457 69.0117 59.1482 64.4068 57.5449 68.1794L50.4665 65.9735C50.2168 65.8822 49.9787 65.7881 49.7508 65.692C47.6628 64.8104 44.5985 62.9019 43.038 61.0225ZM44.0347 65.4817C45.6527 66.2496 47.0669 65.5968 49.7014 66.85C51.076 67.5042 55.3906 69.0063 56.9873 69.3955L56.9292 70.8723L53.0052 69.2997C51.7016 68.7948 49.401 67.9563 48.2473 67.6125C46.2503 71.7973 50.058 70.5914 53.948 71.8548C56.3742 72.6428 55.5476 72.3659 56.1908 73.3852C56.8181 74.3796 57.2776 73.8529 58.4313 74.525L56.8745 74.4247C56.5052 74.5304 57.0982 74.9607 56.6605 75.1008C54.8237 75.6878 55.1397 76.8404 55.1233 77.0578C56.2466 78.0017 58.4792 79.8372 59.8257 80.6371C60.5094 81.043 60.6871 81.2817 61.2498 81.6508C62.8114 82.6758 65.2999 80.9866 68.0096 80.0135C71.4749 78.7691 77.9597 74.9406 81.0288 77.3257C84.3077 78.9964 82.7322 80.2272 80.8471 81.7446C77.0478 84.8032 63.7174 88.9953 58.7859 89.8795C55.612 90.4484 52.2314 90.5249 49.1753 89.81C47.0343 89.3091 47.5247 88.802 45.7519 87.6557C41.958 85.2026 37.6335 77.4663 40.0954 72.5051C42.0564 68.6091 41.3636 70.1438 43.5273 67.0495L44.0347 65.4817Z" fill="#050505"/>
<path fill-rule="evenodd" clip-rule="evenodd" d="M80.321 12.7269C78.8683 15.5956 70.9434 15.7005 68.5864 14.8858C70.0565 14.2545 70.9431 13.0254 69.6284 13.2584C68.0657 13.2414 61.83 17.5756 56.2622 15.6503C49.9316 13.4617 54.9342 7.64866 59.1312 8.49506C59.1831 9.16346 59.2174 8.98457 58.9651 9.39057C58.8585 9.56147 58.4778 9.99286 58.321 10.2415C57.8749 10.9496 57.7533 11.3552 58.1898 11.9865C59.6618 9.23348 64.5079 6.23187 68.93 7.07657L68.6987 8.48316C78.7237 -0.0295439 83.7815 10.2676 80.321 12.7269Z" fill="white"/>
<path fill-rule="evenodd" clip-rule="evenodd" d="M71.4868 71.1657L71.4888 70.8148C69.8515 69.5641 75.0752 66.4282 77.041 66.7621C78.0904 70.4168 74.9978 75.3777 71.6634 72.7531L71.4868 71.1657Z" fill="#050505"/>
<path fill-rule="evenodd" clip-rule="evenodd" d="M65.6492 71.4375L65.4539 73.4436L59.5541 73.0799C58.0696 71.7811 57.7431 69.0241 59.0952 67.5683L63.1048 68.6168C64.585 68.9793 65.9097 69.0511 66.1217 70.4916L65.6492 71.4375Z" fill="#050505"/>
<path fill-rule="evenodd" clip-rule="evenodd" d="M78.2475 69.6222C79.2986 69.5553 79.209 69.4916 79.6963 70.1047C80.1095 70.6246 80.2439 70.8153 80.4284 71.507L77.5102 72.0099L78.2475 69.6222Z" fill="#050505"/>
<path fill-rule="evenodd" clip-rule="evenodd" d="M66.4908 72.674C66.7402 70.7907 67.5895 70.2317 69.6364 70.2597C70.2472 71.0645 70.5752 71.3551 70.4607 72.4784L66.4908 72.674Z" fill="#050505"/>
<path fill-rule="evenodd" clip-rule="evenodd" d="M81.7942 73.7642C81.4588 74.9471 81.623 74.8553 80.2637 74.7291L80.8891 73.2874C81.1105 72.4146 81.244 71.5534 82.2956 72.0806C82.5145 72.768 82.4169 72.9093 81.7942 73.7642Z" fill="#050505"/>
<path fill-rule="evenodd" clip-rule="evenodd" d="M64.4677 75.8483C64.7523 75.5498 67.4775 74.3881 68.0515 74.3306C71.0747 74.0267 71.105 74.5956 72.2757 74.9148C76.2179 75.9897 76.4027 72.913 79.7782 72.7517L78.9686 74.5633L71.0347 76.5172C65.8323 78.3184 68.5997 77.7137 64.4677 75.8483Z" fill="#050505"/>
<path fill-rule="evenodd" clip-rule="evenodd" d="M57.014 76.7789C58.4109 75.8341 60.4286 75.45 62.3057 75.8403C63.858 76.1629 65.8187 77.0116 66.2776 78.0539L61.8369 77.2072C60.7061 77.0371 57.8068 77.0124 57.014 76.7789Z" fill="#050505"/>
<path fill-rule="evenodd" clip-rule="evenodd" d="M75.1917 88.3774C75.1172 88.9908 72.7522 94.5042 72.5113 94.8733L71.0599 96.5633C70.5131 95.7217 71.6833 93.8295 72.4132 92.2393C72.9583 91.0516 73.6335 89.0509 74.3218 88.0982C74.5287 87.1174 75.0732 86.8756 76.1254 86.947C76.0676 87.0026 75.9347 87.2812 75.8374 87.4845C75.5035 88.1832 75.7124 87.9471 75.1917 88.3774Z" fill="#050505"/>
<path fill-rule="evenodd" clip-rule="evenodd" d="M90.812 98.4194C89.255 100.977 85.0146 104.094 81.4072 105.745C73.0221 109.581 61.5608 109.2 53.448 104.838C49.6677 102.804 48.7592 101.588 46.4751 99.2358C45.759 98.4982 44.8837 97.571 44.7451 96.7005L42.246 88.5279C44.3372 89.8486 45.0691 90.7789 48.3692 91.6432C51.1321 92.3666 54.1397 92.4607 57.084 92.1514C62.4477 91.5879 67.4959 89.1158 68.4325 89.4455L71.7386 90.9722C71.0866 92.6345 68.3543 96.8249 70.7093 97.5954C72.9044 98.3137 73.7231 94.7494 74.9562 91.8586C78.79 92.4941 81.2961 93.0758 85.5059 92.7161C89.4423 92.3799 90.9407 91.5536 94.4103 90.1703C94.3502 93.4231 92.5276 96.6795 90.812 98.4194Z" fill="#050505"/>
<path fill-rule="evenodd" clip-rule="evenodd" d="M60.3042 112.579C57.9384 115.759 58.6351 117.588 57.8769 118.24C56.7677 119.194 51.5275 118.983 49.8389 118.918L35.7014 115.869C35.7351 114.797 35.5274 115.559 36.0728 114.865C37.0377 113.637 36.8798 115.022 37.8087 112.363C38.3223 110.892 38.891 109.654 39.3683 108.182C40.2992 105.313 41.2973 101.895 41.634 98.9002L42.1576 95.1437L44.8131 98.9648C46.1978 100.82 45.9144 100.508 47.6072 101.916C49.9294 103.848 48.9715 103.322 52.0193 105.223C53.4551 106.119 54.1842 106.614 55.909 107.209C59.3869 108.408 59.3631 108.353 63.0042 109.263C62.0908 110.161 61.11 111.861 60.3042 112.579Z" fill="#050505"/>
<path fill-rule="evenodd" clip-rule="evenodd" d="M95.0461 99.0813C95.1882 101.387 96.0726 104.077 96.6789 106.408C97.1129 108.075 98.8344 111.958 98.946 113.321L99.2051 113.575C100.463 114.801 100.003 114.286 101.016 116.002C97.4604 118.265 88.6756 119.227 83.7861 119.037C81.3355 118.941 79.0202 119.138 78.2991 117.266C77.962 114.684 77.123 114.301 76.4228 112.461C75.1892 112.165 76.4948 112.323 74.3867 110.216L74.0868 109.259C74.1347 109.234 74.2166 109.181 74.2756 109.152C75.6285 108.509 81.5614 108.113 86.7313 103.77C88.5429 102.248 87.436 103.675 89.806 101.188C92.4782 98.384 91.7211 99.5723 94.4438 95.1862L95.0461 99.0813Z" fill="#050505"/>
<path fill-rule="evenodd" clip-rule="evenodd" d="M44.7451 96.7005C45.1317 99.1261 51.3427 103.705 53.448 104.838C61.5608 109.2 73.0221 109.581 81.4072 105.745C85.0146 104.094 89.255 100.977 90.812 98.4194C88.7107 98.2227 85.7108 98.7051 83.2829 98.619C81.0739 98.5402 78.1633 97.9143 76.0466 98.1175C73.5901 98.3536 72.1045 99.4722 69.4569 98.5112C66.8635 97.5699 67.6663 96.2455 66.069 94.5371L54.3406 96.2943C52.3241 96.2634 50.2372 95.8606 48.5446 95.2222C45.8361 94.2006 44.497 95.7123 44.7451 96.7005Z" fill="white"/>
<path fill-rule="evenodd" clip-rule="evenodd" d="M77.6 34.1152C74.7039 34.6379 72.6369 35.8849 71.4746 37.6077C69.8612 39.9991 70.1849 42.7702 72.0379 44.456C73.3177 45.6202 73.6315 45.2894 76.0296 47.4777C77.5439 48.859 79.3859 51.8102 84.0097 51.6075C89.2017 51.3799 91.7327 45.3265 90.4648 40.0759C89.3391 35.4146 83.6367 33.0264 77.6 34.1152Z" fill="#2E2B2B"/>
<path fill-rule="evenodd" clip-rule="evenodd" d="M54.3953 33.8759C39.9571 35.7604 45.2885 56.2396 56.7518 50.6468C59.3551 49.3766 59.7143 47.7127 61.7994 46.2713C63.7244 44.9404 66.0038 44.2899 66.0863 40.9461C66.2042 36.1493 59.9884 33.146 54.3953 33.8759Z" fill="#2E2B2B"/>
<path fill-rule="evenodd" clip-rule="evenodd" d="M44.7451 96.7005C44.497 95.7123 45.8361 94.2006 48.5446 95.2222C50.2372 95.8606 52.3241 96.2634 54.3406 96.2943L66.069 94.5371C67.6663 96.2455 66.8635 97.5699 69.4569 98.5112C72.1045 99.4722 73.5901 98.3536 76.0466 98.1175C78.1633 97.9143 81.0739 98.5402 83.2829 98.619C85.7108 98.7051 88.7107 98.2227 90.812 98.4194C92.1633 96.1749 94.3502 93.4231 94.4103 90.1703C90.9407 91.5536 89.4423 92.3799 85.5059 92.7161C81.2961 93.0758 78.79 92.4941 74.9562 91.8586C73.7231 94.7494 72.9044 98.3137 70.7093 97.5954C68.3543 96.8249 71.0866 92.6345 71.7386 90.9722L68.4325 89.4455C67.4959 89.1158 62.4477 91.5879 57.084 92.1514C54.1397 92.4607 51.1321 92.3666 48.3692 91.6432C45.0691 90.7789 44.3372 89.8486 42.246 88.5279L44.7451 96.7005Z" fill="#BFBDBD"/>
<path fill-rule="evenodd" clip-rule="evenodd" d="M60.3042 112.579C60.1548 112.054 60.21 112.055 58.9061 111.785C54.3293 110.839 47.4564 107.007 44.6201 103.769C43.1129 102.049 42.9241 100.89 41.634 98.9002C41.0892 103.748 39.3893 107.838 37.8087 112.363C36.9523 114.814 35.7502 114.324 35.7014 115.869C37.7599 118.052 54.5847 120.245 57.8769 118.24C58.6351 117.588 57.9384 115.759 60.3042 112.579Z" fill="#616161"/>
<path fill-rule="evenodd" clip-rule="evenodd" d="M82.2902 76.3727C82.1077 76.8563 82.7761 76.8619 81.8183 77.7398C81.3684 78.1523 81.0858 78.4258 80.687 78.7716C78.4343 80.7255 75.0701 82.3878 72.2709 83.5046C68.0365 85.1941 63.4106 86.4807 58.4395 87.0987C49.1167 88.2583 42.1817 82.2599 40.2309 75.5464C39.8298 74.1659 39.6093 73.4082 39.3836 72.0198C39.3799 71.9963 39.3332 72.0096 39.3105 72.0286C36.8489 76.9898 40.3324 86.2114 44.1263 88.6648C45.8991 89.8111 47.4266 90.4864 49.5677 90.9872C52.6237 91.7021 56.0046 91.6256 59.1785 91.0567C64.1097 90.1726 78.085 85.7562 81.8843 82.6979C83.7694 81.1802 85.5688 78.0437 82.2902 76.3727Z" fill="#2E2B2E"/>
<path fill-rule="evenodd" clip-rule="evenodd" d="M76.4228 112.46C77.123 114.301 77.962 114.684 78.2991 117.266C84.6166 113.744 91.3971 113.484 98.946 113.321C97.8839 109.845 95.352 104.049 95.0461 99.0813C94.2955 99.4549 94.4877 99.6882 94.1371 100.4C93.3672 101.964 92.8978 102.44 91.7846 103.76C90.7148 105.029 88.9987 106.276 87.4711 107.197C84.5945 108.931 80.0273 111.574 76.124 111.821L76.4228 112.46Z" fill="#616161"/>
<path fill-rule="evenodd" clip-rule="evenodd" d="M84.9018 80.5217C84.6223 81.2225 84.2118 82.3963 81.8069 84.016C80.3686 84.9849 79.1463 85.3792 77.6885 86.1817C77.5051 86.9394 78.5808 87.1843 80.1895 87.8184C82.7761 88.8386 88.7473 90.8174 91.3398 90.1147C92.9465 89.8449 94.0756 89.2612 94.7715 87.7209C95.3489 86.4413 96.0567 85.0781 96.5216 83.7677C97.0599 82.2497 98.8579 75.6895 97.6231 74.3992C97.245 76.2885 98.9217 77.6001 95.7426 79.5645C93.2135 81.1272 86.0311 81.3526 84.9018 80.5217Z" fill="#2E2B2B"/>
<path fill-rule="evenodd" clip-rule="evenodd" d="M58.4254 17.2975L58.5285 21.4009C61.764 23.9895 73.0499 23.9895 76.2856 21.4009L76.3885 17.2975C76.1855 17.6969 67.376 16.1155 67.4069 15.7334C67.4378 16.1155 58.6283 17.6969 58.4254 17.2975Z" fill="#BFBDBD"/>
<path fill-rule="evenodd" clip-rule="evenodd" d="M44.2952 62.348L44.7054 62.7074C49.8857 66.3102 51.2339 66.5943 57.6603 68.2083C58.1955 67.3454 58.382 66.3621 61.5761 67.272C62.7615 67.6522 64.4697 67.903 65.7424 68.4892C67.5574 69.5312 65.7685 69.1245 70.4491 69.4451C71.8426 67.0163 75.4094 65.9726 77.8166 65.8227C78.0275 66.8723 78.1123 67.4682 78.2151 67.8446C78.4765 68.8016 78.9434 68.7837 79.0145 67.6743C79.0522 67.0832 79.0108 66.3842 79.101 65.8598C79.2776 64.8308 79.5321 64.3112 79.9667 63.3225C78.9295 63.494 77.5167 63.5887 76.7224 63.9002C75.2427 64.4805 74.5783 66.0781 69.2823 66.4052C62.1302 66.8468 60.94 63.807 59.0742 63.5632C49.4237 62.302 47.1707 61.8117 39.6733 56.3042C40.5178 58.4449 42.6412 60.6693 44.2952 62.348Z" fill="#BFBDBD"/>
<path fill-rule="evenodd" clip-rule="evenodd" d="M78.2991 117.266C79.0202 119.138 81.3355 118.941 83.7861 119.037C88.6756 119.227 97.4604 118.265 101.017 116.002C100.003 114.286 100.463 114.801 99.2051 113.575L98.946 113.321C92.8762 113.177 87.5162 113.472 82.2131 115.301C81.8123 115.439 81.1561 115.628 80.9367 115.711L80.2654 116.034C80.2195 116.058 80.1623 116.097 80.1169 116.122L78.2991 117.266Z" fill="#292626"/>
<path fill-rule="evenodd" clip-rule="evenodd" d="M39.3105 72.0286C42.595 72.602 45.0274 72.4158 48.4159 73.4791C53.41 75.0452 54.5189 76.416 55.6908 76.8336C55.7449 76.1167 58.3298 75.414 59.3282 74.9176C58.1748 74.2453 57.9392 73.8473 57.3119 72.8526C56.669 71.8335 56.7385 72.2502 54.3123 71.4625C51.4924 70.5466 50.6349 70.1325 48.014 68.9754L48.3595 67.9628C47.1177 66.8777 46.1757 66.753 44.9387 65.7388C44.2876 65.205 44.0835 65.0006 44.3477 63.6352C44.0248 63.8968 44.1212 64.2132 43.8981 64.6528C42.7985 66.8202 40.4928 68.9292 39.3105 72.0286Z" fill="#2E2B2E"/>
<path fill-rule="evenodd" clip-rule="evenodd" d="M84.7459 77.1414C85.2493 77.7889 85.1787 79.6762 84.9018 80.5217C86.0311 81.3526 93.2135 81.1272 95.7426 79.5645C98.9217 77.6001 97.245 76.2885 97.6231 74.3992C97.6713 73.0575 97.2351 72.1785 96.843 71.0407L87.6395 75.2544C86.2023 75.9599 84.0891 76.407 84.7459 77.1414Z" fill="#616161"/>
<path fill-rule="evenodd" clip-rule="evenodd" d="M41.634 98.9002C42.5488 106.278 58.2575 113.699 60.3042 112.579C61.11 111.861 62.0908 110.161 63.0042 109.263C52.2492 106.574 48.5055 104.278 42.1576 95.1437L41.634 98.9002Z" fill="#1C191C"/>
<path fill-rule="evenodd" clip-rule="evenodd" d="M76.4228 112.461L76.124 111.821C88.4199 111.044 93.694 101.742 95.0461 99.0813L94.4438 95.1862C87.1984 106.857 78.752 107.441 74.0868 109.259C74.8946 109.996 76.124 111.821 76.4228 112.461Z" fill="#1C191C"/>
<path fill-rule="evenodd" clip-rule="evenodd" d="M88.7552 67.9368C88.9454 68.1564 89.2467 68.5408 89.1433 69.0655C88.9823 69.8819 86.7749 71.2283 86.1249 71.5365C83.2478 72.9005 84.5469 70.4128 82.5184 75.1501C83.5579 75.7899 83.91 76.037 84.7459 77.1414C84.9146 77.9703 95.638 72.2054 96.843 71.0407C95.602 69.2934 93.8627 66.9242 92.9669 64.76C92.6565 63.4645 91.343 63.4334 90.6349 64.0933C90.132 64.5615 90.0019 65.4598 89.7527 66.0818C89.6413 66.3604 89.4545 66.8137 89.3233 67.0557C89.0344 67.5892 89.069 67.3653 88.7552 67.9368Z" fill="#2E2B2B"/>
<path fill-rule="evenodd" clip-rule="evenodd" d="M89.7527 66.0818C92.9006 58.2219 85.3142 56.7478 81.8086 62.1325C75.6402 71.6071 86.3883 74.4837 89.7527 66.0818Z" fill="#BDBABD"/>
<path fill-rule="evenodd" clip-rule="evenodd" d="M60.8915 113.572C65.832 114.25 70.8037 114.115 75.7071 113.611C75.2963 112.59 73.7044 111.014 73.0569 110.282C71.8928 108.967 70.6551 109.182 68.329 109.171C65.8802 109.159 64.8923 108.877 63.441 110.392C62.8259 111.034 61.2662 112.615 60.8915 113.572Z" fill="#ED3338"/>
<path fill-rule="evenodd" clip-rule="evenodd" d="M48.8615 27.9481C48.8046 27.8914 48.6115 27.7579 48.569 27.7287C45.8506 25.863 45.8622 22.8764 47.2092 21.4746C48.5098 20.1211 51.8688 19.7679 53.592 24.2801C54.6978 24.1267 54.761 22.9008 54.3763 21.6677C53.9061 20.1602 52.9811 19.1882 51.8501 18.7066C47.9907 17.0642 43.1228 21.001 43.9573 25.0395C44.3479 26.9282 46.9258 28.6194 48.8615 27.9481Z" fill="#616161"/>
<path fill-rule="evenodd" clip-rule="evenodd" d="M82.788 24.4507C83.3657 23.2301 83.5803 22.109 84.7686 21.3803C86.2176 20.4916 88.0063 20.8437 89.0013 21.6504C90.6558 22.9915 90.8874 25.4208 88.5032 27.4396L87.8453 28.0388C91.7755 28.9873 95.3024 23.3622 89.9835 19.5862C84.7326 15.8581 79.7345 21.9494 82.788 24.4507Z" fill="#616161"/>
<path fill-rule="evenodd" clip-rule="evenodd" d="M91.3398 90.1147C88.7473 90.8174 82.7761 88.8386 80.1895 87.8184C78.5808 87.1843 77.5051 86.9394 77.6885 86.1817C77.5297 86.3872 75.7249 90.2071 75.6124 90.7395L76.0985 90.9555C78.2188 91.5924 81.316 91.8172 83.5372 91.7464C85.3375 91.6888 90.2947 91.1942 91.3398 90.1147Z" fill="#171417"/>
<path fill-rule="evenodd" clip-rule="evenodd" d="M66.1217 70.4916C65.8513 68.6559 60.8351 68.2199 59.0671 67.7576C57.715 69.2135 58.0696 71.7811 59.5541 73.0799L65.4539 73.4436C65.2359 72.7449 65.3867 71.8072 66.1217 70.4916Z" fill="#ED3338"/>
<path fill-rule="evenodd" clip-rule="evenodd" d="M57.2796 71.1668L57.3235 69.0871C51.5953 67.6913 48.8885 66.2728 44.3477 63.6352C44.0835 65.0006 44.2876 65.205 44.9387 65.7388C48.1937 68.4076 53.1796 69.9253 57.2796 71.1668Z" fill="#ED3338"/>
<path fill-rule="evenodd" clip-rule="evenodd" d="M64.4677 75.8483C68.5997 77.7137 65.8323 78.3184 71.0347 76.5172L78.9686 74.5633L79.7782 72.7517C76.4027 72.913 76.2179 75.9897 72.2757 74.9148C69.9179 74.2719 66.3918 73.8314 64.4677 75.8483Z" fill="#2B292B"/>
<path fill-rule="evenodd" clip-rule="evenodd" d="M71.6634 72.7531C74.9978 75.3777 78.0904 70.4168 77.041 66.7621C75.3763 66.4795 71.3749 68.6851 71.183 70.1268C71.0659 71.0072 71.4616 70.9364 71.6634 72.7531Z" fill="#ED3338"/>
<path fill-rule="evenodd" clip-rule="evenodd" d="M54.3772 40.6904C55.2718 41.4359 55.5624 42.6801 57.8451 42.7356C60.2384 42.794 60.4056 41.462 61.4726 40.7738C61.5542 40.1856 59.8033 39.9217 57.8448 39.8967C56.1129 39.8743 54.4362 40.1816 54.3772 40.6904Z" fill="#211F1F"/>
<path fill-rule="evenodd" clip-rule="evenodd" d="M75.1177 40.924C76.0013 43.4256 80.0829 43.6076 81.4495 40.9787C81.5323 40.9373 81.9254 40.9682 81.9277 40.9056C81.966 39.8936 74.0723 39.9228 74.5604 40.6612C74.6466 40.7913 75.1177 40.924 75.1177 40.924Z" fill="#211F1F"/>
<path fill-rule="evenodd" clip-rule="evenodd" d="M83.0377 69.5619C83.919 69.4468 88.5191 61.042 87.5182 60.4595C86.4317 59.8268 82.7869 68.9938 83.0377 69.5619Z" fill="#0D0D0D"/>
<path fill-rule="evenodd" clip-rule="evenodd" d="M91.1924 60.2367C91.8699 61.6121 91.5763 61.2459 92.1537 62.7559C92.7061 61.3984 95.0025 60.5593 97.08 56.2334C95.0909 57.2422 93.6674 59.0575 91.1924 60.2367Z" fill="#BFBDBF"/>
<path fill-rule="evenodd" clip-rule="evenodd" d="M57.014 76.7789C58.3789 77.0527 63.9781 77.4821 66.2776 78.0539C65.1684 75.535 59.4793 75.1115 57.014 76.7789Z" fill="#292929"/>
<path fill-rule="evenodd" clip-rule="evenodd" d="M72.4132 92.2393C71.9707 93.2034 71.3661 94.2786 71.0806 95.1632C70.8952 95.7378 70.8445 96.2319 71.0599 96.5633L71.7264 96.5412C71.8358 96.3739 71.9475 96.1877 72.0611 95.985C73.2721 93.8298 74.7121 89.8392 75.8374 87.4845C76.0316 87.0777 75.9843 86.875 75.8185 86.8214C74.4488 86.3804 72.8081 91.379 72.4132 92.2393Z" fill="#BFBDBD"/>
<path fill-rule="evenodd" clip-rule="evenodd" d="M79.2246 31.6978C82.322 31.901 83.3705 32.1182 86.3942 32.8662C85.738 31.8225 81.7757 30.2802 79.5032 30.3596C77.7395 30.4214 77.4053 31.5782 79.2246 31.6978Z" fill="#211F1F"/>
<path fill-rule="evenodd" clip-rule="evenodd" d="M66.4908 72.674L70.4607 72.4784C70.7708 69.4334 66.914 69.4777 66.4908 72.674Z" fill="#ED3338"/>
<path fill-rule="evenodd" clip-rule="evenodd" d="M62.4236 56.3226C65.0066 58.7454 71.4673 58.7454 74.0505 56.3226C68.9637 57.2802 67.5104 57.2802 62.4236 56.3226Z" fill="#0A0A0A"/>
<path fill-rule="evenodd" clip-rule="evenodd" d="M85.592 68.9382C86.405 69.3135 89.2572 63.2018 88.4369 63.0722C87.7489 62.9634 85.3363 68.82 85.592 68.9382Z" fill="#121212"/>
<path fill-rule="evenodd" clip-rule="evenodd" d="M65.6492 71.4375L66.1217 70.4916C64.6627 69.3972 63.7497 69.0556 61.1276 69.4482C62.1427 70.8437 63.594 71.3939 65.6492 71.4375Z" fill="#F7ADB0"/>
<path fill-rule="evenodd" clip-rule="evenodd" d="M81.5697 67.4046C82.4104 67.7317 85.1274 61.6983 84.717 61.5327C83.55 61.2084 81.039 67.0939 81.5697 67.4046Z" fill="#121212"/>
<path fill-rule="evenodd" clip-rule="evenodd" d="M71.4868 71.1657C73.5748 71.1144 74.5851 70.0236 75.1843 68.2129C73.5677 68.5729 71.5104 69.2597 71.4868 71.1657Z" fill="#F7ADB0"/>
<path fill-rule="evenodd" clip-rule="evenodd" d="M86.6102 51.8822C87.4031 52.6994 90.2686 52.9129 90.9969 51.8822C90.3463 50.8356 87.3212 51.0261 86.6102 51.8822Z" fill="#ED3338"/>
<path fill-rule="evenodd" clip-rule="evenodd" d="M77.5102 72.0099L80.4284 71.507C80.082 70.2079 79.6764 69.5312 78.2475 69.6222L77.5102 72.0099Z" fill="#ED3338"/>
<path fill-rule="evenodd" clip-rule="evenodd" d="M81.2678 41.2883C79.7532 43.5889 76.1331 43.2668 75.1177 40.924C74.8944 40.2794 74.4329 40.3449 74.5054 40.8778C74.5582 41.2659 74.9406 41.7769 75.1965 42.0774C76.8919 44.0656 79.4261 43.5035 80.8134 42.5806C81.3446 42.2274 81.8871 41.6675 81.9379 41.028C81.9478 40.9022 81.9087 40.8441 81.8503 40.8134C81.7494 40.7604 81.6763 40.7681 81.6156 40.8047C81.4767 40.8891 81.3576 41.1513 81.2678 41.2883Z" fill="#F5F5F5"/>
<path fill-rule="evenodd" clip-rule="evenodd" d="M61.4726 40.7738C60.4056 41.462 60.2384 42.794 57.8451 42.7356C55.7095 42.5188 55.4685 41.5119 54.3772 40.6904C54.2502 42.2622 56.5794 43.2135 58.0886 43.1784C59.6284 43.1427 61.8391 41.947 61.4726 40.7738Z" fill="#F5F5F5"/>
<path fill-rule="evenodd" clip-rule="evenodd" d="M80.2637 74.7291C80.9058 74.7887 81.208 74.8408 81.3834 74.7544C81.5872 74.6537 82.5136 72.7661 82.2956 72.0807C81.0175 71.4398 80.7468 73.6157 80.2637 74.7291Z" fill="#BFBDBD"/>
<path fill-rule="evenodd" clip-rule="evenodd" d="M80.001 41.1009C79.6679 40.909 80.2833 40.6831 79.5557 40.9413C78.5213 41.3081 79.4284 42.4462 80.001 41.1009Z" fill="#F5F5F5"/>
<path fill-rule="evenodd" clip-rule="evenodd" d="M59.3015 41.5567C60.6647 40.3352 57.514 40.7539 59.3015 41.5567Z" fill="#EDEDED"/>
<path fill-rule="evenodd" clip-rule="evenodd" d="M64.0728 49.2644C64.6644 49.2414 64.7846 48.5829 64.0728 48.4883C63.261 48.5804 63.4302 49.3236 64.0728 49.2644Z" fill="#ED3338"/>
<path fill-rule="evenodd" clip-rule="evenodd" d="M64.7449 47.7887C69.6684 49.3681 64.8192 54.7755 61.5775 49.4177L60.9258 51.8181C64.297 52.7246 65.1058 53.0676 68.2054 51.2676C71.3051 53.0676 72.1136 52.7246 75.4851 51.8181L74.8334 49.4177C71.5917 54.7755 66.7422 49.3681 71.666 47.7887C71.5815 45.9674 69.8887 45.0597 68.2054 45.0663C66.522 45.0597 64.8291 45.9674 64.7449 47.7887Z" fill="#030503"/>
<path fill-rule="evenodd" clip-rule="evenodd" d="M69.0113 45.8325C68.7831 46.1315 68.5269 46.3257 68.2054 46.3064C67.884 46.3257 67.6277 46.1315 67.3996 45.8325C67.6771 45.5751 67.9563 45.4898 68.2054 45.49C68.4546 45.4898 68.7338 45.5751 69.0113 45.8325Z" fill="#E3E3E3"/>
<path fill-rule="evenodd" clip-rule="evenodd" d="M72.3381 49.2644C71.7465 49.2414 71.6263 48.5829 72.3381 48.4883C73.1499 48.5804 72.9807 49.3236 72.3381 49.2644Z" fill="#ED3338"/>
<path fill-rule="evenodd" clip-rule="evenodd" d="M49.4628 51.8822C48.6699 52.6994 45.8044 52.9129 45.0759 51.8822C45.7267 50.8356 48.7516 51.0261 49.4628 51.8822Z" fill="#ED3338"/>
<path fill-rule="evenodd" clip-rule="evenodd" d="M57.01 31.5016C53.9126 31.7046 52.8641 31.9223 49.8403 32.6701C50.4966 31.6264 54.4588 30.084 56.7311 30.1634C58.4951 30.2249 58.8293 31.382 57.01 31.5016Z" fill="#211F1F"/>
<path fill-rule="evenodd" clip-rule="evenodd" d="M72.5099 83.8218C62.4735 88.1702 49.0447 90.6101 41.9921 80.4503C40.359 78.0975 39.6161 75.8083 39.4069 73.0023C39.3051 71.6354 38.902 71.7922 41.5025 72.0793C43.9352 72.3477 46.2222 72.4161 48.5962 73.1607C51.8909 74.1942 54.1825 75.6263 56.9771 77.5471C57.4134 77.847 57.8607 78.1316 58.3117 78.4088C59.5649 79.1792 61.3567 80.7369 62.7771 80.5104C65.6237 80.0569 70.8777 77.3407 74.1574 76.3919C74.9332 76.1671 75.7181 75.967 76.5107 75.8106C77.2497 75.6646 78.004 75.5546 78.7569 75.518C89.9602 74.9786 73.4974 83.3941 72.5099 83.8218Z" fill="#616161"/>
<path fill-rule="evenodd" clip-rule="evenodd" d="M58.4205 117.35C57.6889 119.214 55.3413 118.991 52.8561 119.059C47.8978 119.194 38.9893 118.134 35.3831 115.831C36.4106 114.127 35.9438 114.637 37.2197 113.425L37.4824 113.174C43.6379 113.098 49.0733 113.452 54.4512 115.341C54.8577 115.483 55.523 115.679 55.7455 115.765L56.4264 116.095C56.4729 116.12 56.531 116.16 56.5769 116.185L58.4205 117.35Z" fill="#292626"/>
</svg>
