<?xml version="1.0" standalone="no"?>
<!DOCTYPE svg PUBLIC "-//W3C//DTD SVG 20010904//EN"
 "http://www.w3.org/TR/2001/REC-SVG-20010904/DTD/svg10.dtd">
<svg version="1.0" xmlns="http://www.w3.org/2000/svg"
 width="864.000000pt" height="864.000000pt" viewBox="0 0 864.000000 864.000000"
 preserveAspectRatio="xMidYMid meet">
<metadata>
Created by potrace 1.14, written by Peter Selinger 2001-2017
</metadata>
<g transform="translate(0.000000,864.000000) scale(0.100000,-0.100000)"
fill="#000000" stroke="none">
<path d="M4739 8636 c-2 -2 -26 -7 -52 -10 -81 -11 -176 -46 -251 -93 -44 -28
-47 -29 -179 -38 -54 -3 -104 -8 -110 -10 -7 -3 -23 -6 -37 -9 -14 -2 -45 -9
-70 -16 -25 -7 -46 -12 -48 -11 -1 1 -19 -6 -40 -15 -91 -39 -138 -48 -262
-49 -119 -2 -142 -4 -235 -25 -58 -14 -144 -45 -158 -59 -6 -6 -17 -11 -24
-11 -17 0 -122 -76 -144 -105 -9 -11 -28 -32 -42 -47 -29 -31 -61 -95 -81
-161 -14 -46 -16 -216 -3 -264 5 -19 2 -23 -16 -24 -111 -4 -208 -36 -352
-112 -53 -29 -145 -118 -195 -189 -97 -138 -132 -295 -105 -468 3 -19 7 -46 9
-59 2 -15 -7 -35 -28 -60 -17 -20 -35 -41 -41 -48 -5 -7 -15 -18 -21 -26 -23
-28 -144 -197 -144 -201 0 -3 -12 -22 -26 -43 -45 -66 -177 -351 -188 -404 -2
-8 -8 -26 -14 -41 -14 -33 -49 -177 -57 -233 -4 -22 -8 -47 -10 -55 -22 -81
-22 -411 1 -523 2 -12 6 -34 9 -49 13 -73 45 -190 69 -253 15 -38 28 -74 29
-79 6 -26 102 -214 139 -273 58 -94 167 -238 227 -301 28 -29 51 -55 51 -57 0
-8 -34 -46 -74 -84 -94 -86 -134 -137 -184 -237 -27 -53 -67 -159 -77 -204
-62 -267 -65 -470 -11 -715 6 -27 20 -64 52 -133 14 -31 34 -77 43 -102 10
-25 21 -54 26 -65 4 -11 9 -24 11 -30 40 -135 39 -132 74 -324 9 -49 6 -406
-4 -461 -4 -19 -9 -51 -13 -70 -3 -19 -7 -44 -8 -55 -3 -31 -14 -86 -25 -130
-10 -38 -13 -52 -24 -100 -3 -11 -10 -36 -16 -55 -6 -19 -13 -46 -16 -60 -6
-30 -62 -195 -121 -360 -32 -88 -59 -144 -92 -188 -99 -135 -120 -169 -135
-223 -21 -72 -18 -112 10 -171 25 -51 38 -66 103 -118 76 -59 164 -104 311
-157 84 -30 120 -41 193 -58 10 -2 26 -6 35 -9 9 -3 32 -8 51 -11 19 -3 37 -8
40 -10 4 -2 25 -6 47 -9 22 -4 51 -8 64 -11 13 -3 42 -7 65 -10 22 -4 51 -8
65 -10 147 -23 670 -26 670 -5 0 3 8 6 18 6 112 4 307 83 380 154 54 53 77 99
92 181 14 83 20 100 29 95 12 -8 277 -20 411 -19 120 1 326 11 382 18 30 4 33
-2 43 -75 17 -131 76 -210 202 -273 60 -31 152 -63 203 -71 8 -1 29 -6 45 -9
117 -25 201 -32 420 -32 183 0 304 7 387 20 13 2 43 6 68 9 25 3 56 8 70 11
14 3 36 7 50 10 14 3 35 7 48 10 12 3 30 7 40 9 170 38 364 114 456 179 49 34
105 89 128 125 41 66 57 198 29 250 -6 11 -8 22 -5 24 2 3 -2 11 -11 18 -8 7
-15 18 -15 24 0 7 -28 44 -63 82 -70 78 -102 125 -112 167 -4 15 -11 27 -16
27 -5 0 -8 3 -7 8 0 4 -2 14 -5 22 -8 19 -36 100 -42 120 -53 183 -120 454
-139 560 -2 14 -7 43 -11 65 -4 22 -9 48 -11 58 -2 10 -5 26 -8 35 -3 9 -7 37
-10 62 -3 25 -8 56 -10 69 -9 39 -19 163 -19 211 1 96 18 161 83 325 62 155
116 334 134 445 3 19 8 44 10 56 4 17 18 180 19 209 0 33 -14 224 -18 245 -3
14 -10 49 -16 78 -30 156 -127 371 -223 493 -12 15 -32 41 -46 59 -14 18 -40
48 -58 67 l-34 34 59 62 c83 88 75 79 161 187 62 78 147 228 205 360 33 75 89
253 102 318 8 46 21 138 30 210 7 59 8 277 1 332 -5 42 -16 127 -21 155 -3 19
-32 149 -38 170 -37 135 -160 415 -191 437 -6 4 -8 8 -4 8 7 0 -117 188 -131
200 -4 3 -21 24 -39 47 -19 24 -57 68 -86 99 l-53 56 12 43 c104 344 -108 708
-458 786 -83 18 -226 23 -280 9 -18 -5 -49 -11 -71 -15 -21 -3 -42 -7 -46 -10
-5 -3 8 23 28 57 21 34 37 64 37 67 1 3 6 16 13 29 7 12 10 22 6 22 -3 0 -1 6
5 13 6 8 13 31 17 53 3 21 8 42 10 45 5 9 6 115 1 154 -32 250 -208 436 -487
515 -67 19 -298 38 -311 26z"/>
</g>
</svg>
