<svg width="519" height="864" viewBox="0 0 519 864" fill="none" xmlns="http://www.w3.org/2000/svg">
<path fill-rule="evenodd" clip-rule="evenodd" d="M217.782 816.483C217.457 817.64 217.222 818.823 217.026 820.009C216.443 823.534 216.164 827.019 215.236 830.491C214.797 832.132 214.206 833.725 213.47 835.255C206.181 850.417 186.23 856.619 170.95 859.339C160.306 861.233 149.321 861.951 138.521 862C126.718 862.054 114.863 861.297 103.144 859.913C90.7213 858.447 78.3159 856.263 66.1641 853.291C55.2481 850.621 44.2776 847.272 33.9236 842.881C21.4882 837.606 0.875631 826.939 0.208569 811.278C0.104268 808.839 0.326907 806.388 0.8494 804.003C2.66509 795.72 7.68094 789.365 12.898 782.957C15.215 780.111 18.514 776.301 19.8369 772.875C28.8904 749.422 37.2825 725.211 42.6071 700.61C47.1916 679.426 49.4235 657.863 47.3502 636.222C45.2297 614.085 38.7462 593.454 28.6018 573.702L28.4685 573.442L28.3749 573.166C16.1488 537.011 22.153 472.954 55.8335 449.339C57.176 447.636 58.5598 445.965 59.8851 444.253C60.1583 443.9 60.831 443.046 61.1585 442.465C60.5541 441.597 58.9569 440.01 58.4561 439.491C55.6211 436.548 52.8997 433.609 50.2749 430.471C-15.0299 352.381 -3.80057 253.208 62.0585 179.84C56.8186 161.136 59.2929 141.884 70.3458 125.659C83.2507 106.716 105.22 95.8226 127.835 94.9281C123.913 78.2594 125.65 61.4865 137.412 47.8902C153.477 29.3186 183.642 22.7306 207.289 26.0375C213.08 23.9072 218.897 21.767 224.762 19.859C229.277 18.3906 233.812 17.0952 238.472 16.1714C247.57 14.368 257.195 13.9418 266.477 13.5068C283.711 0.523309 307.116 -2.27969 327.855 1.96031C351.493 6.79208 372.252 21.9636 379.031 45.8511C384.367 64.6525 379.363 83.7302 367.815 99.0371C384.338 93.9332 402.036 93.1244 418.418 99.7604C434.472 106.263 446.928 119.104 453.108 135.263C458.608 149.643 458.657 165.458 453.143 179.772C481.51 207.962 500.972 243.261 507.747 282.872C514.001 319.445 508.857 357.477 492.754 390.934C483.848 409.438 471.744 426.243 456.916 440.457C456.011 441.567 455.081 442.647 454.148 443.735C454.085 443.807 454.014 443.888 453.939 443.976C454.165 444.189 454.381 444.389 454.546 444.549C455.949 445.916 457.303 447.301 458.611 448.759C499.328 494.177 500.792 551.278 479.532 606.105C474.068 620.196 468.358 631.229 468.606 646.81C468.664 650.517 469.079 654.357 469.514 658.038C470.157 663.482 470.972 668.915 471.86 674.322C474.088 687.885 476.811 701.43 479.905 714.821C482.992 728.183 486.477 741.68 490.824 754.69C492.543 759.838 494.428 765.016 496.669 769.961C498.079 773.071 499.878 776.72 502.036 779.404C506.779 784.358 512.054 789.239 515.304 795.352C518.56 801.476 519.205 807.781 518.006 814.552C516.333 831.214 496.934 841.638 483.173 847.186C472.814 851.363 461.809 854.395 450.891 856.703C438.801 859.259 426.473 860.978 414.159 861.986C401.952 862.986 389.62 863.299 377.383 862.763C366.307 862.277 355.04 861.102 344.203 858.719C329.698 855.528 308.9 848.511 304.135 832.546C303.791 831.392 303.518 830.22 303.292 829.039C302.522 825.012 302.34 820.317 301.032 816.283C273.287 818.682 245.517 819.281 217.782 816.483Z" fill="#211F1F"/>
<path fill-rule="evenodd" clip-rule="evenodd" d="M303.571 812.117C274.003 814.804 244.683 815.507 215.135 812.257C212.654 817.792 212.966 823.78 211.442 829.477C197.255 882.492 5.92378 853.202 4.13119 811.111C4.04175 809.008 4.235 806.897 4.68505 804.844C6.34626 797.267 11.2132 791.246 15.9428 785.436C18.5457 782.239 21.9981 778.179 23.4994 774.289C53.7615 695.897 65.0085 635.994 32.0948 571.908C20.2313 536.827 26.2599 474.302 58.557 452.229C68.8474 439.039 67.2882 444.694 53.2872 427.952C-10.6741 351.468 -0.0688993 253.644 66.4493 180.841C66.3731 180.597 66.2987 180.351 66.2249 180.107C52.5835 134.811 89.357 97.5645 132.947 98.8251C116.123 43.1195 172.012 24.6031 207.708 30.0669C236.387 19.5234 239.918 18.6996 267.894 17.3702C284.316 4.43072 307.111 1.72749 327.068 5.80708C374.037 15.4079 392.115 62.2652 363.553 98.1262L358.915 106.492C425.502 78.0176 468.196 135.67 448.508 180.724C528.393 258.146 521.199 373.593 454.023 437.791C447.252 446.158 447.762 442.541 455.686 451.38C495.323 495.592 496.64 551.124 475.871 604.685C470.078 619.626 464.418 630.44 464.68 646.872C465.047 670.005 483.351 762.727 499.087 782.001C508.156 791.494 516.899 798.648 514.113 814.016C509.671 861.909 321.696 877.656 307.898 831.423C306.004 825.076 306.634 818.248 303.571 812.117Z" fill="#FFCC29"/>
<path fill-rule="evenodd" clip-rule="evenodd" d="M57.2958 391.732C67.8487 399.484 68.2167 402.092 84.3571 411.997C119.592 433.621 153.05 437.591 194.261 442.976C207.433 444.697 215.835 466.158 266.327 463.04C303.717 460.73 308.406 449.452 318.853 445.355C324.46 443.155 333.188 442.705 340.51 441.496C342.692 439.461 351.571 418.431 373.878 407.977C398.027 396.659 409.636 404.596 421.225 419.446C427.699 416.362 436.049 411.676 442.483 406.309C447.338 402.26 456.808 394.155 462.572 391.231C511.298 313.796 487.103 241.073 426.857 192.648C401.375 201.924 402.387 202.19 382.319 178.033C366.161 158.582 361.804 177.35 347.264 145.71L331.726 141.185C323.053 143.684 327.38 150.617 302.18 160.446C275.018 167.828 239.304 167.888 212.033 161.794C190.799 157.049 192.385 155.638 180.113 142.545L170.608 146.096C167.91 186.906 156.251 165.637 139.357 184.437C116.375 198.715 124.314 199.079 90.8714 192.011C69.2909 213.133 47.8269 239.314 38.7275 279.543C34.049 300.225 33.6724 321.167 37.8494 342.316C40.1876 354.154 49.415 385.643 57.2958 391.732Z" fill="#FCFCFC"/>
<path fill-rule="evenodd" clip-rule="evenodd" d="M181.292 114.835L183.337 133.418L168.043 138.018C136.256 91.2522 58.1501 128.061 85.0575 186.399C33.4866 231.341 6.4412 307.71 43.4833 384.528C57.5208 413.639 73.6326 425.893 79.9626 436.119C83.1708 440.097 76.8077 451.308 68.2636 462.344C26.4405 516.359 39.1789 555.865 58.3436 600.078C75.7967 653.305 58.1674 731.434 38.6513 781.99C30.2115 803.852 -0.532419 813.058 43.7873 827.641C81.1251 839.926 126.581 841.901 165.927 840.719C180.18 840.292 192.846 837.819 195.838 826.634C202.56 801.519 206.429 793.041 225.089 773.561C236.017 762.152 283.645 762.245 292.974 772.787C314.052 796.602 314.651 798.529 323.48 828.114C326.743 839.047 341.881 840.155 355.785 841C381.02 842.532 509.027 837.319 497.631 807.24C495.016 800.34 491.217 799.11 487.452 795.129C472.367 779.181 455.048 695.976 452.896 674.379C448.859 633.834 451.078 631.898 463.41 600.096C491.161 521.273 471.33 490.072 449.618 464.884C441.739 455.743 436.609 446.835 437.709 439.29C438.958 434.242 457.098 414.922 467.252 398.348C503.236 339.611 497.774 267.362 456.345 213.131L433.272 186.399C462.091 134.381 384.553 87.2134 350.724 138.077L328.108 132.471C330.209 114.258 328.523 104.769 339.472 98.3841C385.486 71.5536 350.722 7.47927 292.265 24.846C271.64 30.9736 282.76 36.0945 261.263 35.7197C232.939 35.2248 219.38 45.6836 211.111 48.0103C167.265 26.4608 100.672 94.2695 181.292 114.835ZM81.0497 425.04C78.0178 421.389 75.3522 418.955 72.2296 415.187C66.7171 408.535 60.3646 399.513 57.2949 391.732C49.415 385.643 40.1876 354.154 37.8494 342.316C33.6724 321.167 34.049 300.225 38.7275 279.543C47.8269 239.314 69.2909 213.133 90.8714 192.011C122.344 211.94 125.64 198.243 141.836 181.919C155.78 167.866 170.399 188.139 170.587 148.367L180.113 145.118C189 157.637 204.639 163.207 221.32 165.493C245.306 168.781 278.96 166.757 302.18 160.446C328.385 151.985 324.152 148.449 329.636 143.51L347.097 147.675C343.863 183.035 368.743 172.39 378.362 183.968C398.627 207.533 406.266 204.911 428.384 194.448C474.125 237.052 507.81 318.113 462.572 391.231C447.906 421.771 431.694 427.695 427.794 437.277C423.378 418.395 413.856 406.299 400.282 403.311C370.463 396.747 340.381 431.609 335.644 459.189C334.608 465.223 334.791 472.212 332.241 476.151C328.863 462.998 330.568 472.89 326.578 458.928C307.199 458.786 281.834 465.016 274.565 484.5C239.323 481.44 194.784 448.932 183.464 475.563L133.493 459.992C131.729 459.349 130.047 458.684 128.438 458.005C113.698 451.781 92.0648 438.309 81.0497 425.04ZM88.0852 456.519C99.509 461.939 109.492 457.331 128.091 466.18C137.795 470.798 168.255 481.402 179.527 484.149L179.117 494.575L151.415 483.472C142.211 479.909 125.969 473.99 117.826 471.563C103.726 501.105 130.609 492.592 158.07 501.51C175.198 507.072 169.365 505.119 173.905 512.314C178.333 519.335 181.578 515.615 189.722 520.361L178.732 519.653C176.124 520.398 180.309 523.437 177.22 524.424C164.252 528.569 166.483 536.705 166.367 538.24C174.3 544.904 190.06 557.862 199.565 563.507C204.391 566.375 205.648 568.059 209.619 570.664C220.644 577.9 238.212 565.976 257.342 559.107C281.806 550.321 327.588 523.295 349.255 540.131C372.402 551.927 361.28 560.616 347.973 571.328C321.15 592.919 227.039 622.513 192.226 628.754C169.819 632.771 145.951 633.311 124.377 628.264C109.261 624.728 112.725 621.15 100.209 613.056C73.425 595.738 42.8953 541.124 60.2743 506.102C74.1186 478.598 69.2282 489.432 84.5036 467.588L88.0852 456.519Z" fill="#050505"/>
<path fill-rule="evenodd" clip-rule="evenodd" d="M344.257 84.1007C334.001 104.351 278.054 105.093 261.414 99.3413C271.793 94.8828 278.052 86.2086 268.771 87.852C257.737 87.7323 213.715 118.328 174.408 104.739C129.715 89.2872 165.033 48.2505 194.662 54.2259C195.029 58.9436 195.271 57.682 193.49 60.5466C192.738 61.7545 190.05 64.8004 188.944 66.5554C185.793 71.5534 184.935 74.418 188.016 78.8742C198.409 59.4385 232.622 38.2497 263.841 44.2125L262.207 54.1409C332.981 -5.95266 368.688 66.7384 344.257 84.1007Z" fill="white"/>
<path fill-rule="evenodd" clip-rule="evenodd" d="M281.892 496.645L281.904 494.167C270.345 485.34 307.224 463.201 321.103 465.56C328.511 491.358 306.677 526.381 283.138 507.851L281.892 496.645Z" fill="#050505"/>
<path fill-rule="evenodd" clip-rule="evenodd" d="M240.678 498.564L239.299 512.728L197.647 510.159C187.17 500.991 184.863 481.528 194.408 471.251L222.716 478.651C233.165 481.21 242.516 481.717 244.015 491.887L240.678 498.564Z" fill="#050505"/>
<path fill-rule="evenodd" clip-rule="evenodd" d="M329.62 485.75C337.04 485.278 336.408 484.828 339.848 489.156C342.766 492.826 343.714 494.172 345.016 499.056L324.412 502.604L329.62 485.75Z" fill="#050505"/>
<path fill-rule="evenodd" clip-rule="evenodd" d="M246.619 507.295C248.379 494 254.378 490.052 268.826 490.251C273.139 495.931 275.455 497.981 274.647 505.912L246.619 507.295Z" fill="#050505"/>
<path fill-rule="evenodd" clip-rule="evenodd" d="M354.658 514.989C352.291 523.34 353.45 522.693 343.855 521.803L348.267 511.624C349.831 505.463 350.774 499.383 358.198 503.105C359.742 507.958 359.053 508.955 354.658 514.989Z" fill="#050505"/>
<path fill-rule="evenodd" clip-rule="evenodd" d="M232.337 529.702C234.347 527.595 253.586 519.395 257.638 518.988C278.98 516.844 279.194 520.859 287.46 523.112C315.291 530.7 316.595 508.98 340.426 507.842L334.709 520.631L278.699 534.424C241.971 547.14 261.51 542.872 232.337 529.702Z" fill="#050505"/>
<path fill-rule="evenodd" clip-rule="evenodd" d="M179.715 536.272C189.578 529.601 203.821 526.892 217.075 529.646C228.033 531.923 241.874 537.915 245.115 545.272L213.765 539.296C205.782 538.095 185.312 537.921 179.715 536.272Z" fill="#050505"/>
<path fill-rule="evenodd" clip-rule="evenodd" d="M308.046 618.151C307.521 622.481 290.825 661.403 289.122 664.009L278.876 675.94C275.016 669.997 283.277 656.64 288.431 645.413C292.278 637.029 297.046 622.905 301.905 616.179C303.365 609.256 307.21 607.549 314.639 608.053C314.23 608.445 313.29 610.413 312.605 611.847C310.248 616.781 311.722 615.114 308.046 618.151Z" fill="#050505"/>
<path fill-rule="evenodd" clip-rule="evenodd" d="M418.322 689.041C407.329 707.096 377.395 729.103 351.927 740.755C292.73 767.839 211.815 765.15 154.54 734.35C127.852 719.997 121.44 711.415 105.314 694.806C100.258 689.599 94.0797 683.053 93.1 676.907L75.4575 619.213C90.2192 628.537 95.388 635.105 118.686 641.205C138.19 646.312 159.424 646.977 180.21 644.793C218.077 640.815 253.715 623.364 260.329 625.69L283.669 636.469C279.065 648.202 259.777 677.786 276.401 683.225C291.898 688.295 297.679 663.135 306.383 642.727C333.45 647.212 351.142 651.32 380.861 648.78C408.652 646.405 419.231 640.574 443.725 630.808C443.3 653.771 430.434 676.76 418.322 689.041Z" fill="#050505"/>
<path fill-rule="evenodd" clip-rule="evenodd" d="M202.943 789.002C186.242 811.452 191.162 824.364 185.807 828.968C177.977 835.698 140.983 834.213 129.061 833.749L29.2543 812.228C29.4924 804.661 28.0244 810.038 31.8745 805.139C38.6877 796.469 37.5729 806.246 44.1302 787.476C47.7581 777.091 51.7723 768.349 55.142 757.963C61.7137 737.707 68.7598 713.581 71.1359 692.437L74.8335 665.917L93.5796 692.891C103.356 705.987 101.355 703.785 113.307 713.729C129.7 727.368 122.938 723.656 144.456 737.074C154.59 743.393 159.738 746.892 171.916 751.091C196.469 759.556 196.299 759.164 222.005 765.591C215.558 771.933 208.632 783.93 202.943 789.002Z" fill="#050505"/>
<path fill-rule="evenodd" clip-rule="evenodd" d="M448.215 693.715C449.217 709.99 455.46 728.986 459.742 745.438C462.804 757.206 474.96 784.618 475.747 794.242L477.576 796.033C486.459 804.688 483.21 801.052 490.363 813.162C465.258 829.141 403.238 835.933 368.721 834.587C351.419 833.913 335.074 835.303 329.984 822.092C327.603 803.861 321.681 801.159 316.739 788.165C308.028 786.074 317.247 787.196 302.364 772.321L300.246 765.564C300.584 765.388 301.162 765.01 301.58 764.812C311.129 760.267 353.016 757.472 389.512 726.812C402.303 716.068 394.488 726.145 411.22 708.586C430.086 688.791 424.74 697.18 443.962 666.217L448.215 693.715Z" fill="#050505"/>
<path fill-rule="evenodd" clip-rule="evenodd" d="M93.1 676.907C95.8297 694.031 139.678 726.357 154.54 734.35C211.815 765.15 292.73 767.839 351.927 740.755C377.395 729.103 407.329 707.095 418.322 689.041C403.486 687.652 382.309 691.06 365.168 690.45C349.573 689.895 329.025 685.476 314.082 686.912C296.739 688.578 286.251 696.473 267.562 689.69C249.25 683.045 254.919 673.696 243.643 661.636L160.842 674.039C146.607 673.821 131.873 670.978 119.923 666.472C100.803 659.26 91.3495 669.932 93.1 676.907Z" fill="white"/>
<path fill-rule="evenodd" clip-rule="evenodd" d="M325.049 235.091C304.602 238.779 290.009 247.583 281.803 259.745C270.413 276.627 272.698 296.189 285.781 308.09C294.816 316.308 297.032 313.973 313.963 329.421C324.652 339.173 337.657 360.007 370.298 358.575C406.954 356.969 424.821 314.236 415.87 277.169C407.923 244.262 367.667 227.403 325.049 235.091Z" fill="#2E2B2B"/>
<path fill-rule="evenodd" clip-rule="evenodd" d="M161.229 233.401C59.297 246.705 96.936 391.275 177.866 351.793C196.243 342.828 198.779 331.081 213.499 320.905C227.089 311.51 243.183 306.917 243.764 283.313C244.598 249.449 200.715 228.248 161.229 233.401Z" fill="#2E2B2B"/>
<path fill-rule="evenodd" clip-rule="evenodd" d="M93.1 676.907C91.3495 669.932 100.803 659.26 119.923 666.472C131.873 670.978 146.607 673.822 160.842 674.04L243.643 661.636C254.919 673.696 249.25 683.045 267.561 689.69C286.251 696.473 296.739 688.578 314.082 686.912C329.025 685.476 349.573 689.895 365.168 690.45C382.309 691.06 403.486 687.652 418.322 689.041C427.861 673.198 443.3 653.771 443.725 630.808C419.231 640.574 408.652 646.405 380.861 648.78C351.142 651.321 333.45 647.212 306.383 642.727C297.679 663.135 291.897 688.295 276.401 683.226C259.777 677.786 279.065 648.202 283.669 636.47L260.329 625.69C253.715 623.365 218.077 640.815 180.21 644.793C159.424 646.978 138.19 646.313 118.686 641.205C95.388 635.105 90.2192 628.537 75.4575 619.213L93.1 676.907Z" fill="#BFBDBD"/>
<path fill-rule="evenodd" clip-rule="evenodd" d="M202.943 789.002C201.889 785.295 202.278 785.302 193.073 783.399C160.763 776.718 112.241 749.664 92.2178 726.809C81.5774 714.665 80.2456 706.484 71.136 692.437C67.2901 726.66 55.2899 755.53 44.1302 787.476C38.0842 804.783 29.5978 801.316 29.2543 812.228C43.7873 827.641 162.565 843.118 185.807 828.968C191.162 824.364 186.242 811.452 202.943 789.002Z" fill="#616161"/>
<path fill-rule="evenodd" clip-rule="evenodd" d="M358.16 533.403C356.871 536.817 361.591 536.857 354.829 543.055C351.652 545.967 349.658 547.897 346.841 550.34C330.938 564.132 307.187 575.868 287.426 583.752C257.532 595.679 224.874 604.761 189.781 609.124C123.962 617.31 75.0019 574.965 61.2315 527.571C58.4007 517.826 56.843 512.476 55.2506 502.676C55.2229 502.509 54.8921 502.603 54.734 502.738C37.3549 537.76 61.9473 602.861 88.7311 620.179C101.247 628.272 112.032 633.039 127.147 636.575C148.722 641.622 172.589 641.081 194.996 637.065C229.81 630.824 328.473 599.646 355.295 578.055C368.602 567.344 381.307 545.199 358.16 533.403Z" fill="#2E2B2E"/>
<path fill-rule="evenodd" clip-rule="evenodd" d="M316.739 788.165C321.681 801.159 327.603 803.861 329.984 822.091C374.583 797.227 422.452 795.386 475.747 794.242C468.248 769.699 450.374 728.785 448.215 693.715C442.914 696.353 444.271 698 441.796 703.027C436.362 714.062 433.049 717.424 425.188 726.745C417.636 735.703 405.52 744.505 394.735 751.005C374.427 763.246 342.186 781.908 314.627 783.648L316.739 788.165Z" fill="#616161"/>
<path fill-rule="evenodd" clip-rule="evenodd" d="M376.599 562.694C374.624 567.641 371.728 575.927 354.749 587.362C344.594 594.201 335.964 596.986 325.673 602.651C324.377 607.998 331.973 609.728 343.329 614.205C361.591 621.407 403.747 635.377 422.047 630.415C433.39 628.512 441.362 624.392 446.274 613.515C450.352 604.483 455.348 594.86 458.629 585.609C462.431 574.893 475.125 528.581 466.406 519.473C463.738 532.81 475.574 542.069 453.13 555.937C435.275 566.968 384.569 568.561 376.599 562.694Z" fill="#2E2B2B"/>
<path fill-rule="evenodd" clip-rule="evenodd" d="M189.681 116.366L190.407 145.334C213.25 163.608 292.926 163.608 315.769 145.334L316.496 116.366C315.064 119.185 252.869 108.022 253.088 105.324C253.306 108.022 191.113 119.185 189.681 116.366Z" fill="#BFBDBD"/>
<path fill-rule="evenodd" clip-rule="evenodd" d="M89.9231 434.397L92.8198 436.934C129.391 462.37 138.909 464.375 184.279 475.768C188.057 469.676 189.374 462.735 211.924 469.158C220.292 471.843 232.351 473.613 241.336 477.751C254.15 485.108 241.52 482.236 274.566 484.5C284.402 467.354 309.582 459.984 326.579 458.928C328.065 466.337 328.666 470.544 329.39 473.199C331.237 479.956 334.531 479.831 335.034 471.998C335.3 467.826 335.009 462.891 335.644 459.189C336.892 451.925 338.687 448.257 341.756 441.278C334.435 442.488 324.46 443.155 318.853 445.355C308.406 449.452 303.717 460.73 266.327 463.039C215.835 466.158 207.433 444.697 194.261 442.976C126.131 434.074 110.225 430.612 57.2958 391.732C63.2571 406.845 78.2486 422.548 89.9231 434.397Z" fill="#BFBDBD"/>
<path fill-rule="evenodd" clip-rule="evenodd" d="M329.984 822.091C335.074 835.303 351.419 833.913 368.721 834.587C403.238 835.933 465.258 829.141 490.363 813.162C483.21 801.052 486.459 804.688 477.576 796.033L475.747 794.242C432.896 793.226 395.055 795.305 357.615 808.214C354.786 809.19 350.153 810.523 348.605 811.114L343.865 813.388C343.542 813.56 343.137 813.839 342.818 814.011L329.984 822.091Z" fill="#292626"/>
<path fill-rule="evenodd" clip-rule="evenodd" d="M54.734 502.738C77.9209 506.786 95.0919 505.472 119.016 512.976C154.273 524.033 162.101 533.712 170.374 536.657C170.756 531.597 189.004 526.636 196.054 523.132C187.91 518.386 186.249 515.576 181.82 508.555C177.28 501.359 177.771 504.302 160.642 498.74C140.735 492.275 134.679 489.352 116.178 481.184L118.617 474.036C109.851 466.374 103.2 465.495 94.467 458.335C89.8698 454.566 88.4294 453.124 90.2946 443.485C88.0153 445.332 88.6966 447.565 87.1209 450.668C79.3577 465.968 63.0817 480.858 54.734 502.738Z" fill="#2E2B2E"/>
<path fill-rule="evenodd" clip-rule="evenodd" d="M375.497 538.831C379.052 543.401 378.553 556.725 376.599 562.694C384.569 568.561 435.275 566.968 453.13 555.937C475.574 542.069 463.738 532.81 466.406 519.473C466.747 510.001 463.666 503.795 460.9 495.763L395.925 525.509C385.779 530.491 370.86 533.646 375.497 538.831Z" fill="#616161"/>
<path fill-rule="evenodd" clip-rule="evenodd" d="M71.1359 692.437C77.5953 744.522 188.495 796.906 202.943 789.002C208.632 783.929 215.558 771.933 222.005 765.591C146.077 746.608 119.648 730.4 74.8335 665.917L71.1359 692.437Z" fill="#1C191C"/>
<path fill-rule="evenodd" clip-rule="evenodd" d="M316.739 788.165L314.627 783.648C401.434 778.168 438.667 712.497 448.215 693.715L443.962 666.217C392.811 748.61 333.182 752.732 300.246 765.564C305.948 770.769 314.627 783.648 316.739 788.165Z" fill="#1C191C"/>
<path fill-rule="evenodd" clip-rule="evenodd" d="M403.801 473.852C405.144 475.403 407.272 478.115 406.541 481.82C405.404 487.583 389.82 497.088 385.232 499.263C364.92 508.893 374.092 491.331 359.771 524.774C367.109 529.29 369.596 531.034 375.497 538.831C376.688 544.683 452.391 503.986 460.9 495.763C452.138 483.428 439.858 466.703 433.536 451.425C431.343 442.28 422.069 442.061 417.071 446.718C413.522 450.024 412.602 456.365 410.844 460.756C410.057 462.722 408.739 465.923 407.813 467.632C405.772 471.399 406.017 469.818 403.801 473.852Z" fill="#2E2B2B"/>
<path fill-rule="evenodd" clip-rule="evenodd" d="M410.844 460.756C433.067 405.269 379.509 394.865 354.76 432.877C311.211 499.762 387.092 520.069 410.844 460.756Z" fill="#BDBABD"/>
<path fill-rule="evenodd" clip-rule="evenodd" d="M207.09 796.013C241.97 800.795 277.067 799.843 311.684 796.288C308.784 789.079 297.546 777.952 292.974 772.787C284.756 763.501 276.019 765.022 259.597 764.942C242.309 764.859 235.334 762.866 225.089 773.562C220.747 778.094 209.735 789.256 207.09 796.013Z" fill="#ED3338"/>
<path fill-rule="evenodd" clip-rule="evenodd" d="M122.162 191.553C121.759 191.154 120.397 190.211 120.096 190.004C100.904 176.832 100.986 155.751 110.495 145.855C119.679 136.298 143.392 133.806 155.558 165.66C163.365 164.576 163.81 155.923 161.094 147.218C157.774 136.576 151.245 129.713 143.26 126.314C116.014 114.719 81.6463 142.51 87.5397 171.02C90.2951 184.353 108.497 196.293 122.162 191.553Z" fill="#616161"/>
<path fill-rule="evenodd" clip-rule="evenodd" d="M361.675 166.864C365.753 158.248 367.267 150.332 375.658 145.187C385.886 138.916 398.513 141.4 405.538 147.094C417.219 156.562 418.853 173.711 402.023 187.965L397.378 192.195C425.125 198.889 450.024 159.18 412.474 132.522C375.402 106.205 340.117 149.207 361.675 166.864Z" fill="#616161"/>
<path fill-rule="evenodd" clip-rule="evenodd" d="M422.047 630.415C403.747 635.377 361.591 621.407 343.329 614.205C331.973 609.728 324.377 607.998 325.673 602.65C324.553 604.102 311.81 631.069 311.015 634.828L314.449 636.35C329.416 640.847 351.282 642.434 366.963 641.934C379.673 641.528 414.671 638.036 422.047 630.415Z" fill="#171417"/>
<path fill-rule="evenodd" clip-rule="evenodd" d="M244.015 491.887C242.105 478.928 206.693 475.85 194.21 472.587C184.665 482.864 187.17 500.991 197.647 510.159L239.299 512.728C237.76 507.794 238.825 501.174 244.015 491.887Z" fill="#ED3338"/>
<path fill-rule="evenodd" clip-rule="evenodd" d="M181.591 496.653L181.901 481.972C141.462 472.118 122.352 462.104 90.2946 443.485C88.4294 453.124 89.8698 454.566 94.467 458.335C117.446 477.176 152.646 487.889 181.591 496.653Z" fill="#ED3338"/>
<path fill-rule="evenodd" clip-rule="evenodd" d="M232.337 529.702C261.51 542.872 241.971 547.14 278.699 534.424L334.709 520.631L340.426 507.842C316.595 508.98 315.291 530.7 287.46 523.112C270.813 518.574 245.921 515.464 232.337 529.702Z" fill="#2B292B"/>
<path fill-rule="evenodd" clip-rule="evenodd" d="M283.138 507.851C306.677 526.381 328.511 491.358 321.103 465.56C309.349 463.563 281.1 479.135 279.745 489.312C278.919 495.527 281.711 495.028 283.138 507.851Z" fill="#ED3338"/>
<path fill-rule="evenodd" clip-rule="evenodd" d="M161.1 281.507C167.417 286.77 169.467 295.551 185.584 295.945C202.479 296.358 203.661 286.954 211.192 282.096C211.768 277.944 199.407 276.081 185.581 275.903C173.355 275.746 161.517 277.915 161.1 281.507Z" fill="#211F1F"/>
<path fill-rule="evenodd" clip-rule="evenodd" d="M307.524 283.155C313.762 300.815 342.577 302.102 352.223 283.542C352.81 283.251 355.584 283.469 355.601 283.027C355.871 275.882 300.143 276.088 303.589 281.301C304.197 282.22 307.524 283.155 307.524 283.155Z" fill="#211F1F"/>
<path fill-rule="evenodd" clip-rule="evenodd" d="M363.437 485.325C369.66 484.511 402.135 425.178 395.068 421.067C387.398 416.601 361.666 481.312 363.437 485.325Z" fill="#0D0D0D"/>
<path fill-rule="evenodd" clip-rule="evenodd" d="M421.008 419.493C425.791 429.204 423.716 426.618 427.794 437.277C431.694 427.695 447.906 421.771 462.572 391.231C448.531 398.353 438.481 411.167 421.008 419.493Z" fill="#BFBDBF"/>
<path fill-rule="evenodd" clip-rule="evenodd" d="M179.715 536.272C189.351 538.204 228.88 541.237 245.115 545.272C237.284 527.491 197.12 524.502 179.715 536.272Z" fill="#292929"/>
<path fill-rule="evenodd" clip-rule="evenodd" d="M288.431 645.413C285.306 652.22 281.039 659.809 279.024 666.055C277.715 670.111 277.356 673.6 278.876 675.94L283.582 675.782C284.353 674.602 285.143 673.286 285.945 671.856C294.493 656.642 304.661 628.471 312.606 611.847C313.977 608.976 313.641 607.545 312.471 607.168C302.802 604.053 291.217 639.341 288.431 645.413Z" fill="#BFBDBD"/>
<path fill-rule="evenodd" clip-rule="evenodd" d="M336.517 218.024C358.383 219.459 365.785 220.992 387.133 226.272C382.5 218.905 354.527 208.017 338.485 208.577C326.033 209.012 323.672 217.18 336.517 218.024Z" fill="#211F1F"/>
<path fill-rule="evenodd" clip-rule="evenodd" d="M246.619 507.295L274.647 505.912C276.837 484.417 249.607 484.73 246.619 507.295Z" fill="#ED3338"/>
<path fill-rule="evenodd" clip-rule="evenodd" d="M217.905 391.862C236.14 408.966 281.753 408.966 299.989 391.862C264.077 398.623 253.817 398.623 217.905 391.862Z" fill="#0A0A0A"/>
<path fill-rule="evenodd" clip-rule="evenodd" d="M381.469 480.92C387.209 483.571 407.345 440.425 401.554 439.509C396.696 438.743 379.666 480.088 381.469 480.92Z" fill="#121212"/>
<path fill-rule="evenodd" clip-rule="evenodd" d="M240.678 498.564L244.015 491.887C233.714 484.16 227.268 481.749 208.757 484.521C215.923 494.373 226.17 498.257 240.678 498.564Z" fill="#F7ADB0"/>
<path fill-rule="evenodd" clip-rule="evenodd" d="M353.074 470.095C359.009 472.404 378.19 429.81 375.292 428.643C367.053 426.353 349.328 467.902 353.074 470.095Z" fill="#121212"/>
<path fill-rule="evenodd" clip-rule="evenodd" d="M281.892 496.645C296.631 496.283 303.763 488.584 307.995 475.8C296.581 478.343 282.057 483.191 281.892 496.645Z" fill="#F7ADB0"/>
<path fill-rule="evenodd" clip-rule="evenodd" d="M388.659 360.514C394.255 366.282 414.486 367.79 419.628 360.514C415.035 353.128 393.678 354.472 388.659 360.514Z" fill="#ED3338"/>
<path fill-rule="evenodd" clip-rule="evenodd" d="M324.412 502.604L345.016 499.056C342.57 489.884 339.708 485.107 329.621 485.75L324.412 502.604Z" fill="#ED3338"/>
<path fill-rule="evenodd" clip-rule="evenodd" d="M350.942 285.727C340.251 301.968 314.693 299.694 307.524 283.155C305.946 278.606 302.689 279.067 303.201 282.832C303.574 285.569 306.273 289.177 308.081 291.298C320.048 305.335 337.94 301.366 347.735 294.85C351.484 292.357 355.314 288.405 355.673 283.891C355.743 283.003 355.466 282.591 355.055 282.375C354.341 282.002 353.826 282.055 353.399 282.313C352.418 282.908 351.577 284.762 350.942 285.727Z" fill="#F5F5F5"/>
<path fill-rule="evenodd" clip-rule="evenodd" d="M211.192 282.096C203.661 286.954 202.479 296.358 185.584 295.945C170.506 294.414 168.805 287.306 161.1 281.507C160.203 292.603 176.648 299.319 187.304 299.071C198.171 298.819 213.779 290.377 211.192 282.096Z" fill="#F5F5F5"/>
<path fill-rule="evenodd" clip-rule="evenodd" d="M343.855 521.803C348.386 522.223 350.519 522.589 351.757 521.979C353.197 521.269 359.738 507.944 358.198 503.106C349.175 498.582 347.262 513.941 343.855 521.803Z" fill="#BFBDBD"/>
<path fill-rule="evenodd" clip-rule="evenodd" d="M341.998 284.405C339.647 283.049 343.991 281.455 338.855 283.278C331.553 285.869 337.956 293.902 341.998 284.405Z" fill="#F5F5F5"/>
<path fill-rule="evenodd" clip-rule="evenodd" d="M195.866 287.623C205.488 279 183.246 281.955 195.866 287.623Z" fill="#EDEDED"/>
<path fill-rule="evenodd" clip-rule="evenodd" d="M229.549 342.035C233.725 341.873 234.574 337.224 229.549 336.555C223.818 337.206 225.012 342.453 229.549 342.035Z" fill="#ED3338"/>
<path fill-rule="evenodd" clip-rule="evenodd" d="M234.294 331.616C269.054 342.767 234.819 380.94 211.932 343.118L207.332 360.063C231.133 366.462 236.841 368.884 258.725 356.176C280.609 368.884 286.316 366.462 310.117 360.063L305.517 343.118C282.63 380.94 248.395 342.767 283.155 331.616C282.56 318.761 270.609 312.351 258.725 312.398C246.84 312.351 234.89 318.761 234.294 331.616Z" fill="#030503"/>
<path fill-rule="evenodd" clip-rule="evenodd" d="M264.414 317.807C262.803 319.918 260.994 321.289 258.725 321.153C256.454 321.289 254.646 319.918 253.035 317.807C254.994 315.989 256.966 315.387 258.725 315.39C260.484 315.387 262.455 315.989 264.414 317.807Z" fill="#E3E3E3"/>
<path fill-rule="evenodd" clip-rule="evenodd" d="M287.899 342.035C283.723 341.873 282.875 337.224 287.899 336.555C293.631 337.206 292.436 342.453 287.899 342.035Z" fill="#ED3338"/>
<path fill-rule="evenodd" clip-rule="evenodd" d="M126.405 360.514C120.808 366.282 100.578 367.79 95.4354 360.514C100.029 353.128 121.386 354.472 126.405 360.514Z" fill="#ED3338"/>
<path fill-rule="evenodd" clip-rule="evenodd" d="M179.688 216.639C157.821 218.073 150.419 219.607 129.071 224.887C133.704 217.52 161.678 206.632 177.72 207.193C190.172 207.627 192.532 215.795 179.688 216.639Z" fill="#211F1F"/>
<path fill-rule="evenodd" clip-rule="evenodd" d="M289.113 585.991C218.258 616.688 123.455 633.913 73.6634 562.189C62.1343 545.581 56.8892 529.42 55.4133 509.611C54.6942 499.961 51.8496 501.068 70.2091 503.095C87.3824 504.991 103.528 505.472 120.288 510.73C143.549 518.025 159.725 528.136 179.456 541.696C182.536 543.813 185.693 545.822 188.876 547.779C197.724 553.218 210.373 564.213 220.401 562.615C240.497 559.412 277.589 540.238 300.744 533.539C306.221 531.954 311.764 530.54 317.358 529.435C322.574 528.405 327.9 527.628 333.215 527.372C412.31 523.561 296.087 582.971 289.113 585.991Z" fill="#616161"/>
<path fill-rule="evenodd" clip-rule="evenodd" d="M189.645 822.682C184.482 835.837 167.907 834.264 150.361 834.745C115.358 835.703 52.4652 828.217 27.0061 811.957C34.2594 799.928 30.9647 803.527 39.9724 794.972L41.8277 793.201C85.2829 792.665 123.656 795.167 161.624 808.496C164.492 809.503 169.191 810.888 170.761 811.496L175.567 813.824C175.895 813.999 176.306 814.282 176.63 814.458L189.645 822.682Z" fill="#292626"/>
</svg>
